<?xml version="1.0" encoding="UTF-8"?>
<svg width="130px" height="50px" viewBox="0 0 130 50" version="1.1" xmlns="http://www.w3.org/2000/svg" xmlns:xlink="http://www.w3.org/1999/xlink">
    <!-- Generator: Sketch 61.2 (89653) - https://sketch.com -->
    <title>img_ecosystem_3</title>
    <desc>Created with Sketch.</desc>
    <g id="控件" stroke="none" stroke-width="1" fill="none" fill-rule="evenodd">
        <g id="PAX-Gold_Logo-1" transform="translate(-564.000000, 1.000000)">
            <g id="img_logo_dl" transform="translate(573.000000, 12.000000)">
                <g>
                    <path d="M47.0833333,3.375 L47.0833333,21.2758686 L44.0206406,21.2758686 L44.0206406,14.8932034 C44.0241265,13.921362 43.6413886,12.9879778 42.9566991,12.2985654 C42.2720096,11.609153 41.3415097,11.2202407 40.3700789,11.2174603 C38.8910027,11.2225783 37.5592032,12.1144703 36.9907719,13.4805464 C36.4223406,14.8466225 36.7281211,16.4204993 37.7666589,17.4741001 C38.0984752,17.8255964 38.5034335,18.0998661 38.9528946,18.2775125 C39.4042943,18.4544206 39.8852908,18.5435319 40.3700789,18.5400656 C40.8335792,18.5434012 41.2930819,18.4541394 41.7216528,18.2775125 L42.8186584,21.01069 C41.9752294,21.4160453 41.0484058,21.6174971 40.1128862,21.5988089 C39.2222072,21.6073512 38.3396845,21.4284459 37.5225883,21.0737027 C36.7472832,20.7359192 36.0482925,20.2447209 35.4676711,19.6296608 C34.8838031,19.0079773 34.4249396,18.2797232 34.1160972,17.4846022 C33.4692374,15.7994935 33.4692374,13.9344026 34.1160972,12.2492939 C34.4249396,11.4541729 34.8838031,10.7259189 35.4676711,10.1042353 C36.0484351,9.48934006 36.7473899,8.99816698 37.5225883,8.66019339 C38.3396845,8.30545023 39.2222072,8.12654489 40.1128862,8.13508724 C40.8618424,8.12330375 41.606267,8.25336616 42.3068974,8.51841473 C42.9220436,8.75602213 43.498661,9.08338271 44.0180162,9.4898611 L44.0180162,3.375 L47.0833333,3.375 Z" id="_复合路径_" fill="#FA9B00" fill-rule="nonzero"></path>
                    <polygon id="_复合路径_2" fill="#232A49" fill-rule="nonzero" points="52.8580784 6.49997429 52.8580784 10.9263517 59.5657685 10.9263517 60.3374965 14.0459705 52.8580784 14.0459705 52.8580784 21.6 49.7738095 21.6 49.7738095 3.375 61.8809524 3.375 61.8809524 6.49997429"></polygon>
                    <path d="M68.6058322,8.10011251 C69.506175,8.09492569 70.3981363,8.27419641 71.2271918,8.62708365 C72.8436188,9.31135579 74.1296714,10.6037413 74.8105905,12.2281281 C75.5075809,13.9089902 75.5075809,15.7999966 74.8105905,17.4808586 C74.1285461,19.1032579 72.842638,20.3936076 71.2271918,21.0766345 C69.5485991,21.7744552 67.6630652,21.7744552 65.9844725,21.0766345 C64.3690344,20.3917967 63.0839948,19.0994838 62.4036952,17.4755901 C61.7067048,15.794728 61.7067048,13.9037216 62.4036952,12.2228596 C63.08512,10.6009531 64.3700151,9.310676 65.9844725,8.62708365 C66.8135063,8.27412547 67.7054823,8.09485179 68.6058322,8.10011251 Z M68.6058322,11.1743914 C67.1284781,11.1795559 65.7982292,12.074416 65.2304598,13.4450381 C64.6626903,14.8156602 64.9681147,16.3947746 66.0054434,17.4518817 C66.3368733,17.8045477 66.7413601,18.0797302 67.190298,18.2579677 C67.641172,18.4354645 68.1216085,18.5248723 68.6058322,18.5213945 C69.0858606,18.525545 69.5621327,18.4360838 70.0082596,18.2579677 C70.4577991,18.0736058 70.8653671,17.7993609 71.206221,17.4518817 C72.6291292,16.0134332 72.6291292,13.690285 71.206221,12.2518365 C70.5171982,11.5584116 69.5809601,11.1705013 68.6058322,11.1743914 L68.6058322,11.1743914 Z" id="_复合路径_3" fill="#232A49" fill-rule="nonzero"></path>
                    <path d="M82.6991405,8.49430059 C83.350086,8.22251071 84.0476193,8.08865801 84.75,8.10075223 L84.75,11.2464436 C83.7735477,11.2283359 82.8332381,11.6263428 82.1517208,12.3462225 C81.4632141,13.0551863 81.0784827,14.0178623 81.0830737,15.0201949 L81.0830737,21.6 L78.0238095,21.6 L78.0238095,8.47004076 L81.0804545,8.47004076 L81.0804545,9.49164917 C81.5704071,9.08053012 82.1156267,8.74459467 82.6991405,8.49430059 L82.6991405,8.49430059 Z" id="_复合路径_4" fill="#232A49" fill-rule="nonzero"></path>
                    <path d="M97.5297619,19.6280136 C96.9183534,20.2451226 96.1944969,20.7370475 95.39806,21.0766946 C93.7272651,21.7744351 91.8504904,21.7744351 90.1796955,21.0766946 C88.5717618,20.3919355 87.2926918,19.099771 86.6155525,17.4760637 C85.9218,15.7953946 85.9218,13.9046054 86.6155525,12.2239363 C87.2926918,10.600229 88.5717618,9.30806454 90.1796955,8.62330538 C91.8504904,7.92556487 93.7272651,7.92556487 95.39806,8.62330538 C96.1944028,8.96312799 96.9182278,9.45503146 97.5297619,10.0719864 L95.3745774,12.2529099 C94.6961209,11.5485056 93.7593623,11.158613 92.7862686,11.175618 C91.8147104,11.1707006 90.8816451,11.558665 90.1953506,12.2529099 C88.7790524,13.6911933 88.7790524,16.0140747 90.1953506,17.452358 C90.5345745,17.7998541 90.9402614,18.0740759 91.3877469,18.2583515 C91.8317644,18.436576 92.3058492,18.5260317 92.7836594,18.521748 C93.7575519,18.5458651 94.696699,18.1559341 95.3719682,17.4470901 L97.5297619,19.6280136 Z" id="_复合路径_5" fill="#232A49" fill-rule="nonzero"></path>
                    <path d="M109.610216,16.3927779 L102.935726,16.3927779 C103.107823,16.7904717 103.359223,17.1485507 103.674426,17.4449353 C104.014991,17.7919602 104.422282,18.06581 104.871538,18.2498357 C105.317311,18.4278186 105.793271,18.5171529 106.272971,18.512875 C106.925545,18.5242855 107.568766,18.3559888 108.132817,18.0262522 L111.318131,19.3046235 C110.709854,20.0186333 109.953502,20.5905001 109.102033,20.9801841 C107.443535,21.7462627 105.546632,21.8045925 103.844561,21.1418515 C102.14249,20.4791104 100.78062,19.1519013 100.069991,17.4633481 C99.373495,15.7849583 99.373495,13.8967333 100.069991,12.2183435 C100.749809,10.5968383 102.033937,9.30642618 103.64823,8.62259568 C105.325633,7.92580144 107.209831,7.92580144 108.887234,8.62259568 C110.506461,9.30540659 111.794785,10.5981432 112.475951,12.2236043 C112.82686,13.055517 113.005126,13.9505522 112.999851,14.8539978 C113.003397,15.3714432 112.943573,15.8873634 112.821725,16.3901475 L109.610216,16.3927779 Z M106.272971,11.1740773 C105.298477,11.1698704 104.362795,11.5572548 103.674426,12.2499082 C103.362777,12.557477 103.112107,12.9216573 102.935726,13.3231088 L109.610216,13.3231088 C109.433503,12.9218442 109.182873,12.5577232 108.871517,12.2499082 C108.190377,11.5464592 107.249913,11.1570954 106.272971,11.1740773 L106.272971,11.1740773 Z" id="_复合路径_6" fill="#232A49" fill-rule="nonzero"></path>
                    <g id="_编组_" transform="translate(4.708333, 0.000000)" fill="#232A49" fill-rule="nonzero" stroke="#232A49">
                        <g id="_编组_2">
                            <path d="M6.33892496,26.9335075 L0.101911977,26.9335075 L0.101911977,9.18604478 L2.45811688,9.18604478 L2.45811688,24.6042537 L6.33077201,24.6042537 C9.64494949,24.6042537 12.3863817,23.5524627 14.4837302,21.4791045 C16.5810786,19.4057463 17.6266955,16.6191045 17.6266955,13.1776119 C17.6266955,9.88723881 16.5708874,7.23156716 14.4918831,5.28313433 C12.4128788,3.33470149 9.73870851,2.33731343 6.56313131,2.33731343 L0.0937590188,2.33731343 L0.0937590188,0 L6.56109307,0 C10.3522186,0 13.5665224,1.20895522 16.1143218,3.59261194 C18.6621212,5.97626866 19.9869769,9.22231343 19.9869769,13.1776119 C19.9869769,17.2598507 18.6988095,20.6066418 16.1571248,23.1252985 C13.6154401,25.6439552 10.3012626,26.9335075 6.33892496,26.9335075 Z" id="路径"></path>
                        </g>
                    </g>
                    <g id="_编组_3" transform="translate(0.000000, 4.050000)" fill="#FA9B00" fill-rule="nonzero" stroke="#FA9B00">
                        <path d="M8.7672955,18.8692742 C11.7207439,18.7041033 14.2033425,17.8282385 16.1630307,16.2600499 C18.3501015,14.5099044 19.5059524,12.0997714 19.5059524,9.17304095 C19.5059524,6.35237996 18.3762338,4.0659946 16.1469493,2.38263355 C13.9618886,0.730700478 11.1958873,0 7.92935225,0 L0,0 L0,18.9 L2.29361013,18.9 L2.29361013,2.20388693 L8.16052242,2.20388693 C9.38503068,2.19113897 10.6046111,2.35731721 11.7788381,2.69691332 C12.8522718,3.02101434 13.8312272,3.40600707 14.6855518,4.05224486 C15.4870181,4.64205011 16.1361774,5.40687592 16.5811472,6.28559551 C17.0145602,7.1974275 17.2310418,8.19332346 17.2143524,9.19857618 C17.2313513,10.2542756 17.0139508,11.3010298 16.5771268,12.2667325 C16.135243,13.1842494 15.4840247,13.9905935 14.6734907,14.6238308 C13.8004414,15.3166701 12.8003072,15.8406436 11.7265736,16.1677302 C10.7459077,16.4587013 9.73305934,16.6296247 8.71122871,16.6772705 C8.69429604,16.67806 8.71122871,18.8724098 8.7672955,18.8692742 Z" id="路径"></path>
                    </g>
                </g>
            </g>
        </g>
    </g>
</svg>