<?xml version="1.0" encoding="UTF-8"?>
<svg width="16px" height="16px" viewBox="0 0 16 16" version="1.1" xmlns="http://www.w3.org/2000/svg" xmlns:xlink="http://www.w3.org/1999/xlink">
    <!-- Generator: Sketch 61.2 (89653) - https://sketch.com -->
    <title>img_cn</title>
    <desc>Created with Sketch.</desc>
    <g id="页面-1" stroke="none" stroke-width="1" fill="none" fill-rule="evenodd">
        <g id="GOLDx---交互" transform="translate(-1332.000000, -94.000000)" fill-rule="nonzero">
            <g id="切换语言下拉菜单" transform="translate(1323.000000, 74.000000)">
                <g id="img_cn" transform="translate(9.000000, 20.000000)">
                    <path d="M8,0.6 C3.91262085,0.6 0.6,3.91262085 0.6,8 C0.6,12.0873792 3.91262085,15.4 8,15.4 C12.0873792,15.4 15.4,12.0873792 15.4,8 C15.4,3.91262085 12.0873792,0.6 8,0.6 Z" id="路径" stroke="#999DAB" stroke-width="1.2"></path>
                    <path d="M8.7609375,3.0328125 L8.7609375,4.8078125 L12.5,4.8078125 L12.5,10.43125 L11.0171875,10.43125 L11.0171875,9.7390625 L8.7625,9.7390625 L8.7625,12.9671875 L7.2390625,12.9671875 L7.2390625,9.7390625 L4.9828125,9.7390625 L4.9828125,10.4609375 L3.4984375,10.4609375 L3.4984375,4.8078125 L7.2375,4.8078125 L7.2375,3.0328125 L8.7609375,3.0328125 Z M7.2390625,6.190625 L4.9828125,6.190625 L4.9828125,8.35625 L7.2390625,8.35625 L7.2390625,6.190625 Z M11.01875,6.190625 L8.7625,6.190625 L8.7625,8.35625 L11.01875,8.35625 L11.01875,6.190625 Z" id="形状结合" fill="#999DAB"></path>
                </g>
            </g>
        </g>
    </g>
</svg>