<?xml version="1.0" encoding="UTF-8"?>
<svg width="130px" height="50px" viewBox="0 0 130 50" version="1.1" xmlns="http://www.w3.org/2000/svg" xmlns:xlink="http://www.w3.org/1999/xlink">
    <title>img_ecosystem_4</title>
    <g id="控件" stroke="none" stroke-width="1" fill="none" fill-rule="evenodd">
        <g id="编组-9" transform="translate(-479.000000, 0.000000)" fill-rule="nonzero">
            <g id="编组-5">
                <g transform="translate(498.000000, 11.000000)">
                    <g id="GOLDx-logo" transform="translate(36.004950, 1.775371)" fill="#232A49">
                        <path d="M6.51926786,19.3238089 C9.47545238,19.3238089 11.5506548,17.7967732 11.5506548,15.0755173 L11.5506548,15.0363625 C11.5506548,12.647922 9.98446429,11.6494756 7.20447619,10.9251125 C4.8356131,10.3182137 4.24829167,10.024553 4.24829167,9.12399346 L4.24829167,9.0848387 C4.24829167,8.41920774 4.85519048,7.89061846 6.01025595,7.89061846 C7.16532143,7.89061846 8.35954167,8.39963036 9.57333929,9.24145774 L11.1395298,6.97048155 C9.74953571,5.85457084 8.04630357,5.22809465 6.04941071,5.22809465 C3.24984524,5.22809465 1.25295238,6.87259465 1.25295238,9.35892203 L1.25295238,9.39807679 C1.25295238,12.1193327 3.03449405,12.8828506 5.79490476,13.5876363 C8.08545833,14.1749577 8.55531548,14.5665054 8.55531548,15.3300232 L8.55531548,15.369178 C8.55531548,16.1718506 7.811375,16.6612851 6.578,16.6612851 C5.01180952,16.6612851 3.71970238,16.0152316 2.48632738,14.9972077 L0.704785714,17.1311423 C2.34928571,18.5994458 4.44406548,19.3238089 6.51926786,19.3238089 Z M18.6963988,19.2063446 L20.7520238,12.7653863 L22.768494,19.2063446 L25.4505952,19.2063446 L28.7200179,8.63455893 L25.7638333,8.63455893 L24.0410238,15.0167851 L22.044131,8.59540417 L19.479494,8.59540417 L17.5021786,14.9972077 L15.8185238,8.63455893 L12.8036071,8.63455893 L16.033875,19.2063446 L18.6963988,19.2063446 Z M33.1053512,19.3238089 C34.5540774,19.3238089 35.5525238,18.7952196 36.2768869,17.992547 L36.2768869,19.1280351 L39.1547619,19.1280351 L39.1547619,13.0394696 C39.1547619,10.2007494 37.7256131,8.51709465 34.4757679,8.51709465 C32.6942262,8.51709465 31.5587381,8.84991012 30.4036726,9.35892203 L31.1476131,11.6298982 C32.1069048,11.2775054 32.9095774,11.0621542 34.0450655,11.0621542 C35.5329464,11.0621542 36.2964643,11.7473625 36.2964643,12.9807375 L36.2964643,13.1569339 C35.5525238,12.902428 34.789006,12.7262316 33.7318274,12.7262316 C31.2455,12.7262316 29.5031131,13.7834101 29.5031131,16.0739637 L29.5031131,16.1131185 C29.5031131,18.1883208 31.1280357,19.3238089 33.1053512,19.3238089 Z M34.0059107,17.2681839 C33.046619,17.2681839 32.3809881,16.7983268 32.3809881,15.9956542 L32.3809881,15.9564994 C32.3809881,15.0167851 33.1640833,14.5077732 34.4366131,14.5077732 C35.1609762,14.5077732 35.8266071,14.6643923 36.335619,14.8993208 L36.335619,15.4279101 C36.335619,16.5046661 35.3959048,17.2681839 34.0059107,17.2681839 Z M44.6951607,22.2604161 L44.6951607,17.7576185 C45.3999464,18.5994458 46.3788155,19.3238089 47.9645833,19.3238089 C50.4509107,19.3238089 52.7414643,17.4052256 52.7414643,13.9008744 L52.7414643,13.8617196 C52.7414643,10.3573685 50.411756,8.43878512 47.9645833,8.43878512 C46.4179702,8.43878512 45.4195238,9.16314822 44.6951607,10.1420173 L44.6951607,8.63455893 L41.7193988,8.63455893 L41.7193988,22.2604161 L44.6951607,22.2604161 Z M47.2010655,16.7983268 C45.8110714,16.7983268 44.656006,15.6432613 44.656006,13.9008744 L44.656006,13.8617196 C44.656006,12.1193327 45.8110714,10.9642673 47.2010655,10.9642673 C48.5910595,10.9642673 49.7657024,12.1193327 49.7657024,13.8617196 L49.7657024,13.9008744 C49.7657024,15.6628387 48.5910595,16.7983268 47.2010655,16.7983268 Z" id="Swap"></path>
                    </g>
                    <g id="GOLDx-logo" transform="translate(-0.000000, 0.000000)">
                        <path d="M13.8724012,19.9826733 L3.66835657,19.9826733 C1.6433187,19.9804464 0.00226641272,18.3680066 0,16.3782762 L0,1.94407566 C0,0.870392319 0.885837299,0 1.97857299,0 C3.07130867,0 3.95714597,0.870392319 3.95714597,1.94407566 L3.95714597,16.0967668 L13.8728582,16.0967668 C15.0618707,16.0967668 16.0257558,15.1496875 16.0257558,13.981406 C16.0257558,12.8131245 15.0618707,11.8660452 13.8728582,11.8660452 L8.26796758,11.8660452 C7.17523189,11.8660452 6.28939459,10.9956528 6.28939459,9.9219695 C6.28939459,8.84828616 7.17523189,7.97789384 8.26796758,7.97789384 L13.8724012,7.97789384 C17.2414586,7.97789384 19.9826733,10.6717631 19.9826733,13.9816305 C19.9826733,17.2914979 17.2414586,19.9826733 13.8724012,19.9826733 Z" id="路径" fill="#FFBB3B"></path>
                        <path d="M13.080981,27.7537129 L1.8932252,27.7537129 C0.849072702,27.7537129 0.00261988926,26.8875901 0.00261988926,25.8191736 C0.00261988926,24.7507572 0.849072702,23.8846345 1.8932252,23.8846344 L13.080981,23.8846344 C18.4742277,23.8846344 22.8614802,19.3949844 22.8614802,13.8768564 C22.8614802,8.35872849 18.4737911,3.86907845 13.080981,3.86907845 L1.89060543,3.86907845 C0.846452881,3.86907845 0,3.00295574 0,1.93453923 C0,0.866122714 0.846452881,0 1.89060543,0 L13.080981,0 C20.5591333,0 26.6435644,6.22537404 26.6435644,13.87775 C26.6435644,21.5301259 20.5591333,27.7537129 13.080981,27.7537129 Z" id="路径" fill="#FA9B00"></path>
                    </g>
                </g>
            </g>
        </g>
    </g>
</svg>