<?xml version="1.0" encoding="UTF-8"?>
<svg width="130px" height="50px" viewBox="0 0 130 50" version="1.1" xmlns="http://www.w3.org/2000/svg" xmlns:xlink="http://www.w3.org/1999/xlink">
    <!-- Generator: Sketch 61.2 (89653) - https://sketch.com -->
    <title>img_ecosystem_4</title>
    <desc>Created with Sketch.</desc>
    <g id="控件" stroke="none" stroke-width="1" fill="none" fill-rule="evenodd">
        <g id="PAX-Gold_Logo-1" transform="translate(-873.000000, 1.000000)">
            <g id="编组-5" transform="translate(888.000000, 9.000000)">
                <g id="GOLDx-logo" transform="translate(40.000000, 3.000000)" fill="#232A49" font-family="HomepageBaukasten-Bold, HomepageBaukasten" font-size="22" font-weight="bold">
                    <text id="Swap">
                        <tspan x="0" y="21">Swap</tspan>
                    </text>
                </g>
                <g id="GOLDx-logo" fill-rule="nonzero">
                    <path d="M14.9951842,21.6 L3.96526034,21.6 C1.77632309,21.5975929 0.00244984813,19.8546479 0,17.7038758 L0,2.10142225 C0,0.940838788 0.95753383,0 2.13871167,0 C3.31988951,0 4.27742334,0.940838788 4.27742334,2.10142225 L4.27742334,17.3995821 L14.9956781,17.3995821 C16.2809251,17.3995821 17.3228236,16.3758495 17.3228236,15.1130114 C17.3228236,13.8501733 16.2809251,12.8264408 14.9956781,12.8264408 L8.93714756,12.8264408 C7.75596972,12.8264408 6.79843589,11.885602 6.79843589,10.7250185 C6.79843589,9.56443508 7.75596972,8.62359629 8.93714756,8.62359629 L14.9951842,8.62359629 C18.6369212,8.62359629 21.6,11.5354978 21.6,15.1132541 C21.6,18.6910104 18.6369212,21.6 14.9951842,21.6 Z" id="路径" fill="#FFBB3B"></path>
                    <path d="M14.1397093,30 L2.04645614,30 C0.917793636,30 0.00283193381,29.0637763 0.00283193381,27.908886 C0.00283193381,26.7539957 0.917793636,25.8177721 2.04645614,25.8177721 L14.1397093,25.8177721 C19.9694662,25.8177721 24.7118074,20.9647457 24.7118074,15 C24.7118074,9.03525435 19.9689943,4.18222795 14.1397093,4.18222795 L2.04362433,4.18222795 C0.914961776,4.18222795 0,3.24600433 0,2.09111397 C0,0.936223616 0.914961776,0 2.04362433,0 L14.1397093,0 C22.2231166,0 28.8,6.72923374 28.8,15.0009659 C28.8,23.272698 22.2231166,30 14.1397093,30 Z" id="路径" fill="#FA9B00"></path>
                </g>
            </g>
        </g>
    </g>
</svg>