<?xml version="1.0" encoding="UTF-8"?>
<svg width="130px" height="50px" viewBox="0 0 130 50" version="1.1" xmlns="http://www.w3.org/2000/svg" xmlns:xlink="http://www.w3.org/1999/xlink">
    <title>img_ecosystem_2</title>
    <defs>
        <polygon id="path-1" points="0 0.212806294 12.5251422 0.212806294 12.5251422 28.5783552 0 28.5783552"></polygon>
    </defs>
    <g id="控件" stroke="none" stroke-width="1" fill="none" fill-rule="evenodd">
        <g id="编组-9" transform="translate(-160.000000, 0.000000)">
            <g id="PAX-Gold_Logo-1">
                <g transform="translate(178.000000, 7.000000)">
                    <g>
                        <g id="Group-18">
                            <g id="Group-3" transform="translate(0.000000, 2.603006)">
                                <g id="Fill-1-Clipped">
                                    <g>
                                        <mask id="mask-2" fill="white">
                                            <use xlink:href="#path-1"></use>
                                        </mask>
                                        <g id="path-1"></g>
                                        <path d="M10.5131674,2.30093373 C11.2367023,1.49192899 11.8963288,0.801397763 12.5251422,0.223698429 C1.88096248,-0.114797275 4.97938082,7.49232949 1.51006526,15.2235714 C-2.48421254,24.1282651 1.98024881,27.5211203 8.63357437,28.5783552 C7.71146685,27.5019389 6.95826014,26.2720711 6.38536659,24.9429113 C2.07154659,19.5743695 3.80848682,9.79410031 10.5131674,2.30093373" id="Fill-1" fill="#EFE812" fill-rule="nonzero" mask="url(#mask-2)"></path>
                                    </g>
                                </g>
                            </g>
                            <path d="M36.1282426,14.3890404 C35.1376617,17.1466521 33.3196947,20.2416311 30.7496623,23.2880924 C28.7468173,25.6609473 26.5202927,27.5305719 24.2218712,28.8845548 C21.5639646,30.5860598 18.2681148,31.5902638 14.581967,31.5902638 C12.5197784,31.5902638 10.4918265,31.4763035 8.63277551,31.1818122 C9.73063134,32.4613261 11.0658613,33.5230742 12.6167823,34.2643798 C22.2418506,38.8656647 22.8489808,30.3186482 33.0321068,25.9813899 C38.7496301,23.5453492 38.7701722,18.7849713 36.1282426,14.3890404" id="Fill-4" fill="#EDE70A" fill-rule="nonzero"></path>
                            <path d="M24.2182193,5.49393744 C25.6378997,5.75006586 26.9845419,6.21154837 28.1908139,6.8851548 C31.4227552,8.69272185 34.3671086,11.4593601 36.1280144,14.3884762 C37.8615309,9.56039917 37.0546868,5.76586235 33.2612642,5.07758774 C29.0912382,4.32387064 25.8319075,4.08241037 22.7003937,1.91942283 C18.8419213,-0.743410037 15.4604799,0.134422153 12.5263975,2.82771964 C12.7329588,2.83336123 12.9440849,2.8435161 13.1620583,2.85592761 C17.232798,3.0928746 21.1186597,3.875928 24.2182193,5.49393744" id="Fill-6" fill="#EDE70A" fill-rule="nonzero"></path>
                            <path d="M10.5131674,4.90393943 C3.80848682,12.397106 2.07154659,22.1773752 6.38536659,27.545917 C4.44871249,23.0518225 4.58337671,17.4463336 7.31203907,12.9714204 C10.9468319,7.01276767 18.234677,4.414249 24.2181052,5.49405029 C21.1185456,3.87604083 17.2326839,3.09298744 13.1630854,2.85491213 C12.9439707,2.84250061 12.7328446,2.83460238 12.5251422,2.82670415 C11.8963288,3.40440348 11.2367023,4.09493472 10.5131674,4.90393943" id="Fill-8" fill="#DEC21C" fill-rule="nonzero"></path>
                            <path d="M28.1902432,6.88538044 C26.9839713,6.2106457 25.6373291,5.75029155 24.2176487,5.49416313 C28.2998005,7.62442942 31.0159095,11.2034573 30.9850965,16.9048533 C30.9577071,21.8514038 28.3728388,26.2225117 24.2210722,28.8842163 C26.5194939,27.5302334 28.7471596,25.6617371 30.7500046,23.287754 C33.3200372,20.2424209 35.1368629,17.1474419 36.1274438,14.3887019 C34.3665379,11.4595857 31.4221846,8.69181923 28.1902432,6.88538044" id="Fill-10" fill="#E5CB22" fill-rule="nonzero"></path>
                            <path d="M24.2183334,5.49405029 C18.2349053,4.41537732 10.9470601,7.01163936 7.31226729,12.9702921 C4.58360495,17.4463336 4.44779951,23.0529508 6.38559487,27.545917 C6.95848842,28.8739485 7.71055386,30.1060729 8.63380264,31.1824892 C10.4917125,31.4769805 12.5196643,31.5898124 14.5818529,31.5898124 C18.2680007,31.5898124 21.5638505,30.5856085 24.2206158,28.8841034 C28.3735235,26.2235271 30.9583918,21.851291 30.9846399,16.9047405 C31.0165942,11.2033444 28.299344,7.62431657 24.2183334,5.49405029 M23.5461534,26.1738811 C18.9378982,29.1007407 12.7935577,27.7952755 9.82067378,23.2560482 C6.84778984,18.7179491 8.31768406,12.8732566 12.7810042,9.73540143 C17.7727102,6.22745766 24.1738257,7.61190506 26.5076252,12.6521061 C28.7832223,17.5681921 28.1544088,23.2458933 23.5461534,26.1738811" id="Fill-12" fill="#CCA727" fill-rule="nonzero"></path>
                            <path d="M54.198812,25.9988789 L54.198812,31.2839251 C53.7708537,31.5107172 53.1842652,31.6980182 52.4390472,31.8446997 C51.6938291,31.9913811 50.9429049,32.0635936 50.1862746,32.0635936 C49.0450523,32.0635936 48.0647424,31.8277748 47.2419212,31.3561376 C46.4202412,30.8856285 45.7914277,30.2052522 45.3589045,29.3161368 C44.9252401,28.4270213 44.7095491,27.3652732 44.7095491,26.1286356 C44.7095491,24.9044094 44.9252401,23.8471745 45.3589045,22.9580591 C45.7914277,22.0689438 46.4145351,21.3919523 47.2259441,20.9259566 C48.0373531,20.4599608 48.9959798,20.2263988 50.1041065,20.2263988 C51.7588788,20.2263988 53.0861199,20.7307574 54.0835483,21.7383463 L53.6555899,22.5349395 C53.0963912,22.0373508 52.5349099,21.6762887 51.9700049,21.4540099 C51.4050999,21.2317311 50.7785688,21.1211558 50.0869882,21.1211558 C48.7061093,21.1211558 47.6390666,21.5544302 46.8881423,22.4221076 C46.1372181,23.2886566 45.761756,24.5252942 45.761756,26.1286356 C45.761756,27.7658265 46.1429242,29.0182606 46.9052606,29.8848096 C47.6664559,30.7524869 48.7654529,31.1857613 50.2022516,31.1857613 C51.3092372,31.1857613 52.335196,31.0074869 53.2778456,30.6498098 L53.2778456,26.8609146 L50.1862746,26.8609146 L50.1862746,25.9988789 L54.198812,25.9988789 Z" id="Fill-14" fill="#CBB10E" fill-rule="nonzero"></path>
                            <path d="M61.0652034,31.3485778 C60.2811841,30.8712989 59.6786186,30.1886658 59.2563666,29.2995504 C58.834114,28.4115634 58.6229882,27.3599701 58.6229882,26.1447705 C58.6229882,24.9318275 58.8306904,23.8802343 59.248378,22.9911189 C59.6649237,22.1020034 60.265207,21.4193705 61.0492263,20.9420916 C61.8321048,20.4648126 62.7622012,20.2267373 63.8360914,20.2267373 C64.9111224,20.2267373 65.8423596,20.4648126 66.6320858,20.9420916 C67.4218114,21.4193705 68.0243769,22.0986186 68.4409226,22.9820923 C68.8574689,23.8666944 69.0663124,24.9149028 69.0663124,26.128974 C69.0663124,27.3430453 68.8551867,28.3968953 68.4329341,29.2916522 C68.010682,30.1864092 67.4081165,30.8712989 66.6240972,31.3485778 C65.8400774,31.8258567 64.9111224,32.063932 63.8360914,32.063932 C62.7724719,32.063932 61.8492233,31.8258567 61.0652034,31.3485778 M66.9036963,29.8524268 C67.6329377,28.9745946 67.9969872,27.7334437 67.9969872,26.128974 C67.9969872,24.5245044 67.6352199,23.2889951 66.9116849,22.4213177 C66.1881503,21.5547687 65.1633328,21.120366 63.8360914,21.120366 C62.5202621,21.120366 61.4977267,21.5570254 60.7696273,22.429216 C60.0403859,23.3025349 59.675195,24.5357876 59.675195,26.128974 C59.675195,27.7221605 60.0403859,28.9610548 60.7696273,29.8445286 C61.4977267,30.7280023 62.5202621,31.1691751 63.8360914,31.1691751 C65.1519206,31.1691751 66.1744554,30.730259 66.9036963,29.8524268" id="Fill-16" fill="#CBB10E" fill-rule="nonzero"></path>
                        </g>
                        <polygon id="Fill-19" fill="#CBB10E" fill-rule="nonzero" points="73.8888889 31.3679245 73.8888889 19.418239 74.866724 19.418239 74.866724 30.4618866 80.6746032 30.4618866 80.6746032 31.3679245"></polygon>
                        <g id="Group-24" transform="translate(44.484127, 4.481132)" fill-rule="nonzero">
                            <path d="M40.4110253,15.5823525 L44.2218719,15.5823525 C46.1076635,15.5823525 47.5615592,16.0924585 48.5824041,17.1126705 C49.6032491,18.1328824 50.1136716,19.5904929 50.1136716,21.4866561 C50.1136716,23.3828193 49.5997847,24.8462002 48.5743205,25.877953 C47.5477016,26.9085517 46.0972702,27.4244281 44.2218719,27.4244281 L40.4110253,27.4244281 L40.4110253,15.5823525 Z M44.1722153,26.5265493 C45.7808545,26.5265493 46.9899322,26.1018457 47.8006032,25.2535925 C48.6101194,24.4053393 49.0154549,23.1496939 49.0154549,21.4866561 C49.0154549,18.1490396 47.4010417,16.4802314 44.1722153,16.4802314 L41.4422635,16.4802314 L41.4422635,26.5265493 L44.1722153,26.5265493 Z" id="Fill-20" fill="#CBB10E"></path>
                            <path d="M0.503609147,0.25309104 L5.42999442,0.25309104 C6.67256137,0.25309104 7.64028544,0.555461547 8.33316664,1.15904848 C9.02720262,1.7637895 9.37364324,2.58665276 9.37364324,3.62879233 C9.37364324,4.672086 9.0214286,5.49494927 8.31699938,6.09853616 C7.6125702,6.70327718 6.6494653,7.00564769 5.42999442,7.00564769 L2.21733529,7.00564769 L2.21733529,12.0951666 L0.503609147,12.0951666 L0.503609147,0.25309104 Z M5.23021369,5.64151819 C6.05127792,5.64151819 6.66909694,5.46955937 7.08598046,5.12564176 C7.50170918,4.78287824 7.70957355,4.28315904 7.70957355,3.62879233 C7.70957355,2.98596648 7.50170918,2.49317179 7.08598046,2.14925419 C6.66909694,1.80533659 6.05127792,1.6333778 5.23021369,1.6333778 L2.21733529,1.6333778 L2.21733529,5.64151819 L5.23021369,5.64151819 Z" id="Fill-22" fill="#808184"></path>
                        </g>
                        <path d="M65.349012,17.177673 L64.0794755,14.2243154 L58.0645412,14.2243154 L56.7938457,17.177673 L55.0396825,17.177673 L60.3369526,5.22798742 L61.7896731,5.22798742 L67.1031746,17.177673 L65.349012,17.177673 Z M58.6488754,12.8477898 L63.4939817,12.8477898 L61.0720083,7.15884979 L58.6488754,12.8477898 Z" id="Fill-25" fill="#808184" fill-rule="nonzero"></path>
                        <polygon id="Fill-26" fill="#808184" fill-rule="nonzero" points="75.586764 11.0851969 79.9206349 17.177673 77.9695606 17.177673 74.6434121 12.3779991 71.3161537 17.177673 69.3650794 17.177673 73.6989498 11.0688913 69.5570792 5.22798742 71.492616 5.22798742 74.6589497 9.79239454 77.8097458 5.22798742 79.7608201 5.22798742"></polygon>
                    </g>
                </g>
            </g>
        </g>
    </g>
</svg>