<?xml version="1.0" encoding="UTF-8"?>
<svg width="130px" height="50px" viewBox="0 0 130 50" version="1.1" xmlns="http://www.w3.org/2000/svg" xmlns:xlink="http://www.w3.org/1999/xlink">
    <title>img_ecosystem_3</title>
    <g id="控件" stroke="none" stroke-width="1" fill="none" fill-rule="evenodd">
        <g id="编组-9" transform="translate(-319.000000, 0.000000)">
            <g id="img_logo_dl">
                <g transform="translate(333.000000, 13.000000)">
                    <g>
                        <path d="M42.9166667,3.07632743 L42.9166667,19.3930484 L40.1250087,19.3930484 L40.1250087,13.5752208 C40.1281861,12.6893831 39.7793188,11.8385992 39.1552213,11.2101968 C38.5311238,10.5817943 37.682969,10.2272991 36.7975056,10.2247647 C35.4493211,10.2294298 34.2353799,11.0423933 33.7172523,12.2875777 C33.1991246,13.5327621 33.4778449,14.9673577 34.4244767,15.9277196 C34.7269287,16.24811 35.09605,16.4981081 35.5057358,16.6600335 C35.9171886,16.821286 36.355619,16.9025113 36.7975056,16.8993518 C37.2199881,16.9023922 37.6388269,16.8210297 38.0294712,16.6600335 L39.0293966,19.1513369 C38.2606074,19.5208201 37.4158035,19.7044442 36.5630733,19.6874099 C35.7512154,19.6951963 34.946792,19.5321233 34.2020053,19.2087733 C33.4953112,18.9008821 32.8581781,18.4531527 32.3289391,17.8925227 C31.7967409,17.3258554 31.3784847,16.6620486 31.0969736,15.9372923 C30.507358,14.4013083 30.507358,12.7012696 31.0969736,11.1652856 C31.3784847,10.4405293 31.7967409,9.7767225 32.3289391,9.21005518 C32.8583081,8.64957546 33.4954084,8.20186902 34.2020053,7.89380459 C34.946792,7.57045464 35.7512154,7.40738163 36.5630733,7.41516801 C37.2457502,7.40442731 37.9242964,7.52297978 38.5629242,7.76457272 C39.1236327,7.98115292 39.649222,8.27954353 40.1226166,8.65005039 L40.1226166,3.07632743 L42.9166667,3.07632743 Z" id="_复合路径_" fill="#FA9B00" fill-rule="nonzero"></path>
                        <polygon id="_复合路径_2" fill="#232A49" fill-rule="nonzero" points="48.1803723 5.92475532 48.1803723 9.95941797 54.2944616 9.95941797 54.997895 12.8029642 48.1803723 12.8029642 48.1803723 19.6884956 45.3690476 19.6884956 45.3690476 3.07632743 56.4047619 3.07632743 56.4047619 5.92475532"></polygon>
                        <path d="M62.5345196,7.3832884 C63.3551861,7.37856058 64.1682127,7.54196664 64.9239005,7.86362492 C66.3972809,8.487342 67.5695235,9.66535716 68.1901843,11.1459929 C68.8254941,12.6781061 68.8254941,14.4017668 68.1901843,15.93388 C67.5684977,17.4127041 66.3963868,18.5888636 64.9239005,19.2114456 C63.3938558,19.8475122 61.6751834,19.8475122 60.1451387,19.2114456 C58.6726597,18.5872129 57.5013404,17.409264 56.8812443,15.9290777 C56.2459344,14.3969645 56.2459344,12.6733038 56.8812443,11.1411906 C57.502366,9.66281568 58.6735536,8.48672237 60.1451387,7.86362492 C60.9008066,7.54190197 61.7138467,7.37849322 62.5345196,7.3832884 Z M62.5345196,10.1855073 C61.1879048,10.1902147 59.975377,11.0058836 59.4578527,12.2552117 C58.9403283,13.5045398 59.218724,14.9439096 60.1642537,15.9074674 C60.4663535,16.228924 60.8350451,16.479754 61.2442539,16.6422183 C61.6552276,16.8040075 62.0931476,16.8855031 62.5345196,16.882333 C62.9720677,16.8861162 63.4061918,16.8045719 63.8128384,16.6422183 C64.2225957,16.4741717 64.5940957,16.2241962 64.9047855,15.9074674 C66.2017726,14.5963152 66.2017726,12.4787554 64.9047855,11.1676032 C64.2767381,10.5355433 63.423353,10.1819614 62.5345196,10.1855073 L62.5345196,10.1855073 Z" id="_复合路径_3" fill="#232A49" fill-rule="nonzero"></path>
                        <path d="M75.3806325,7.74259257 C75.9739722,7.49485489 76.6097769,7.37284756 77.25,7.3838715 L77.25,10.2511831 C76.3599594,10.2346779 75.502863,10.5974629 74.881657,11.2536365 C74.2540801,11.89986 73.9033958,12.7773435 73.9075805,13.6909741 L73.9075805,19.6884956 L71.1190476,19.6884956 L71.1190476,7.72047963 L73.905193,7.72047963 L73.905193,8.65168021 C74.351787,8.27694339 74.8487571,7.97073674 75.3806325,7.74259257 L75.3806325,7.74259257 Z" id="_复合路径_4" fill="#232A49" fill-rule="nonzero"></path>
                        <path d="M88.8988095,17.8910212 C88.341508,18.4535188 87.6817095,18.9019106 86.9557538,19.2115004 C85.4328169,19.847494 83.7221284,19.847494 82.1991915,19.2115004 C80.7335528,18.5873394 79.5676749,17.4095257 78.9504594,15.9295094 C78.3181008,14.3975721 78.3181008,12.6741093 78.9504594,11.142172 C79.5676749,9.66215567 80.7335528,8.48434201 82.1991915,7.86018101 C83.7221284,7.22418745 85.4328169,7.22418745 86.9557538,7.86018101 C87.6816238,8.16993082 88.3413934,8.61830301 88.8988095,9.18066021 L86.9343493,11.1685816 C86.3159332,10.526514 85.4620736,10.1711251 84.5750944,10.1866253 C83.6895148,10.182143 82.8390216,10.5357742 82.2134612,11.1685816 C80.9224991,12.4795832 80.9224991,14.5968999 82.2134612,15.9079015 C82.5226652,16.2246458 82.8924506,16.4746001 83.3003356,16.6425681 C83.7050595,16.8050206 84.13719,16.8865599 84.5727161,16.8826553 C85.4604234,16.9046381 86.3164602,16.5492143 86.931971,15.9030998 L88.8988095,17.8910212 Z" id="_复合路径_5" fill="#232A49" fill-rule="nonzero"></path>
                        <path d="M99.910197,14.9420896 L93.8263698,14.9420896 C93.9832365,15.3045893 94.2123891,15.6309799 94.4996976,15.9011357 C94.8101246,16.2174504 95.1813725,16.4670658 95.5908707,16.634806 C95.9971953,16.7970382 96.4310348,16.8784668 96.8682834,16.8745675 C97.4631074,16.8849682 98.0494059,16.731565 98.5635414,16.4310087 L101.466969,17.5962497 C100.912521,18.2470728 100.223104,18.768332 99.4469857,19.1235306 C97.9352575,19.8218147 96.2062218,19.8749825 94.6547766,19.2708912 C93.1033314,18.6667998 91.8619809,17.4570427 91.2142399,15.917919 C90.5793804,14.3880593 90.5793804,12.6669339 91.2142399,11.1370742 C91.8338965,9.65906497 93.0043855,8.48284864 94.4758207,7.85953411 C96.0047809,7.22440308 97.7222351,7.22440308 99.2511953,7.85953411 C100.727128,8.48191928 101.901441,9.66025445 102.522327,11.1418694 C102.842182,11.9001615 103.004672,12.71599 102.999864,13.5394847 C103.003096,14.0111384 102.948566,14.4814021 102.837502,14.939692 L99.910197,14.9420896 Z M96.8682834,10.1852209 C95.9800279,10.1813863 95.1271492,10.5344889 94.4996976,11.1658456 C94.2156287,11.4461958 93.9871414,11.7781478 93.8263698,12.1440726 L99.910197,12.1440726 C99.7491224,11.7783181 99.5206723,11.4464203 99.2368692,11.1658456 C98.6160073,10.5246487 97.7587706,10.1697418 96.8682834,10.1852209 L96.8682834,10.1852209 Z" id="_复合路径_6" fill="#232A49" fill-rule="nonzero"></path>
                        <g id="_编组_" transform="translate(4.291667, 0.000000)" fill="#232A49" fill-rule="nonzero" stroke="#232A49">
                            <g id="_编组_2">
                                <path d="M5.77795815,24.5500112 L0.0928932179,24.5500112 L0.0928932179,8.37312046 L2.24058442,8.37312046 L2.24058442,22.4268861 L5.7705267,22.4268861 C8.79141414,22.4268861 11.2902417,21.468174 13.2019841,19.5782988 C15.1137266,17.6884236 16.066811,15.1483873 16.066811,12.0114516 C16.066811,9.01226192 15.1044372,6.59160547 13.2094156,4.81560032 C11.3143939,3.03959517 8.8768759,2.13047154 5.98232323,2.13047154 L0.0854617605,2.13047154 L0.0854617605,0 L5.98046537,0 C9.43609307,0 12.3659452,1.10196804 14.6882756,3.27468168 C17.0106061,5.44739532 18.2182179,8.4061795 18.2182179,12.0114516 C18.2182179,15.7324303 17.0440476,18.7830452 14.7272908,21.0788119 C12.4105339,23.3745787 9.38964646,24.5500112 5.77795815,24.5500112 Z" id="路径"></path>
                            </g>
                        </g>
                        <g id="_编组_3" transform="translate(0.000000, 3.691593)" fill="#FA9B00" fill-rule="nonzero" stroke="#FA9B00">
                            <path d="M7.99142864,17.199427 C10.6835099,17.0488729 12.9464095,16.2505183 14.732674,14.8211074 C16.7261987,13.2258421 17.7797619,11.0289951 17.7797619,8.36126741 C17.7797619,5.79022244 16.7500184,3.70617207 14.7180157,2.17178102 C12.7263233,0.666036719 10.2051008,0 7.22763966,0 L0,0 L0,17.2274336 L2.09063578,17.2274336 L2.09063578,2.00885268 L7.43835229,2.00885268 C8.55449699,1.99723286 9.66614992,2.14870506 10.7364631,2.45824843 C11.7149026,2.75366794 12.6072248,3.10459051 13.3859454,3.69363912 C14.1164855,4.23124922 14.7081971,4.92839132 15.113789,5.72934812 C15.5088469,6.56048701 15.7061708,7.46825059 15.6909584,8.38454289 C15.706453,9.34681763 15.5082915,10.3009387 15.1101244,11.1811809 C14.7073454,12.0175017 14.113757,12.7524879 13.3749517,13.3296865 C12.5791634,13.9612125 11.6675367,14.4388167 10.6888237,14.7369576 C9.7949424,15.0021791 8.87172665,15.1579765 7.94032352,15.2014058 C7.92488931,15.2021255 7.94032352,17.202285 7.99142864,17.199427 Z" id="路径"></path>
                        </g>
                    </g>
                </g>
            </g>
        </g>
    </g>
</svg>