<?xml version="1.0" encoding="UTF-8"?>
<svg width="130px" height="50px" viewBox="0 0 130 50" version="1.1" xmlns="http://www.w3.org/2000/svg" xmlns:xlink="http://www.w3.org/1999/xlink">
    <!-- Generator: Sketch 61.2 (89653) - https://sketch.com -->
    <title>img_ecosystem_2</title>
    <desc>Created with Sketch.</desc>
    <defs>
        <polygon id="path-1" points="0 0.237447023 13.9754218 0.237447023 13.9754218 31.8874279 0 31.8874279"></polygon>
    </defs>
    <g id="控件" stroke="none" stroke-width="1" fill="none" fill-rule="evenodd">
        <g id="PAX-Gold_Logo-1" transform="translate(-266.000000, 1.000000)">
            <g transform="translate(276.000000, 5.000000)">
                <g>
                    <g id="Group-18">
                        <g id="Group-3" transform="translate(0.000000, 2.904407)">
                            <g id="Fill-1-Clipped">
                                <g>
                                    <mask id="mask-2" fill="white">
                                        <use xlink:href="#path-1"></use>
                                    </mask>
                                    <g id="path-1"></g>
                                    <path d="M11.7304816,2.56735763 C12.5377942,1.66467867 13.2737984,0.894191188 13.9754218,0.249600352 C2.09875813,-0.128089591 5.55594071,8.35986238 1.68491492,16.9863007 C-2.7718582,26.9220642 2.20954077,30.7077763 9.6332514,31.8874279 C8.60437353,30.6863739 7.76395342,29.3141004 7.12472483,27.8310379 C2.31140988,21.8408755 4.2494695,10.928154 11.7304816,2.56735763" id="Fill-1" fill="#EFE812" fill-rule="nonzero" mask="url(#mask-2)"></path>
                                </g>
                            </g>
                        </g>
                        <path d="M40.3115128,16.0551398 C39.2062331,19.1320539 37.1777646,22.585399 34.3101495,25.9846084 C32.0753961,28.6322149 29.5910635,30.7183223 27.0265089,32.2290821 C24.0608447,34.1276036 20.3833702,35.2480838 16.2704053,35.2480838 C13.969437,35.2480838 11.7066696,35.1209281 9.63236005,34.7923379 C10.857336,36.2200059 12.3471716,37.4046933 14.0776729,38.2318343 C24.8172228,43.3658996 25.4946523,33.8292285 36.856877,28.9897613 C43.2364294,26.2716528 43.25935,20.9600732 40.3115128,16.0551398" id="Fill-4" fill="#EDE70A" fill-rule="nonzero"></path>
                        <path d="M27.0224342,6.13007757 C28.6064986,6.41586296 30.1090678,6.93078029 31.4550134,7.68238325 C35.0611795,9.69924754 38.346458,12.7862333 40.3112582,16.0545103 C42.2454977,10.6673928 41.3452295,6.43348852 37.1125685,5.66551896 C32.4596973,4.82452935 28.8229704,4.55511052 25.3288603,2.14167179 C21.0236175,-0.829489094 17.2506407,0.149986823 13.9768225,3.15513981 C14.2073013,3.16143464 14.4428737,3.17276533 14.6860861,3.18661396 C19.2281746,3.45099693 23.5639782,4.32471966 27.0224342,6.13007757" id="Fill-6" fill="#EDE70A" fill-rule="nonzero"></path>
                        <path d="M11.7304816,5.471764 C4.2494695,13.8325604 2.31140988,24.7452819 7.12472483,30.7354442 C4.96382656,25.7209809 5.11408348,19.4664354 8.15869623,14.4733743 C12.2143598,7.82477235 20.3460606,4.92537257 27.0223068,6.13020348 C23.5638509,4.32484555 19.2280473,3.45112282 14.6872321,3.1854809 C14.4427463,3.17163226 14.207174,3.1628195 13.9754218,3.15400674 C13.2737984,3.79859757 12.5377942,4.56908506 11.7304816,5.471764" id="Fill-8" fill="#DEC21C" fill-rule="nonzero"></path>
                        <path d="M31.4543766,7.68263501 C30.1084312,6.9297731 28.605862,6.41611478 27.0217975,6.13032939 C31.5766195,8.50725809 34.6072253,12.5006997 34.5728445,18.8622574 C34.5422837,24.3815664 31.6581148,29.2588025 27.0256175,32.2287045 C29.5901721,30.7179446 32.0757781,28.6330961 34.3105315,25.9842307 C37.1781467,22.5862802 39.2053418,19.1329352 40.3106215,16.0547621 C38.3458212,12.7864851 35.0605428,9.69824041 31.4543766,7.68263501" id="Fill-10" fill="#E5CB22" fill-rule="nonzero"></path>
                        <path d="M27.0225615,6.13020348 C20.3463153,4.92663154 12.2146144,7.82351339 8.15895088,14.4721154 C5.11433816,19.4664354 4.96280787,25.7222398 7.12497954,30.7354442 C7.76420813,32.2172478 8.60335483,33.5920392 9.63350611,34.7930932 C11.7065423,35.1216835 13.9693096,35.2475802 16.270278,35.2475802 C20.3832429,35.2475802 24.0607174,34.1271 27.0251082,32.2285786 C31.6588788,29.2599355 34.5430477,24.3814405 34.572335,18.8621315 C34.6079893,12.5005738 31.5761102,8.50713217 27.0225615,6.13020348 M26.2725502,29.204541 C21.1307074,32.4703001 14.274917,31.0136758 10.9578044,25.9488537 C7.64069182,20.8852906 9.28078432,14.3638442 14.26091,10.8626584 C19.830603,6.94853171 26.9729002,8.49328354 29.5769292,14.1170868 C32.1160165,19.6024038 31.414393,25.9375231 26.2725502,29.204541" id="Fill-12" fill="#CCA727" fill-rule="nonzero"></path>
                        <path d="M60.4744639,29.0092754 L60.4744639,34.9062743 C59.9969525,35.1593266 59.3424433,35.3683151 58.5109368,35.5319807 C57.6794303,35.6956463 56.841557,35.7762202 55.9973169,35.7762202 C54.7239531,35.7762202 53.6301337,35.5130961 52.7120383,34.9868482 C51.7952165,34.4618591 51.093593,33.7027024 50.6109882,32.7106368 C50.12711,31.7185712 49.8864442,30.5338838 49.8864442,29.1540565 C49.8864442,27.7880779 50.12711,26.6084263 50.6109882,25.6163607 C51.093593,24.6242952 51.7888497,23.8689152 52.6942113,23.3489621 C53.5995729,22.8290089 54.6691985,22.5684029 55.9056346,22.5684029 C57.7520121,22.5684029 59.2329338,23.1311609 60.3458539,24.255418 L59.8683424,25.1442483 C59.2443944,24.5890441 58.6178995,24.1861748 57.9875844,23.9381584 C57.3572694,23.690142 56.6581926,23.5667633 55.8865342,23.5667633 C54.3457641,23.5667633 53.155169,24.0502064 52.3172956,25.0183516 C51.4794223,25.9852379 51.0604856,27.3650651 51.0604856,29.1540565 C51.0604856,30.9808169 51.4857891,32.3782697 52.3363961,33.3451559 C53.1857297,34.3133012 54.411979,34.7967442 56.0151439,34.7967442 C57.2503067,34.7967442 58.3950608,34.5978275 59.4468593,34.1987352 L59.4468593,29.9711258 L55.9973169,29.9711258 L55.9973169,29.0092754 L60.4744639,29.0092754 Z" id="Fill-14" fill="#CBB10E" fill-rule="nonzero"></path>
                        <path d="M68.1359112,34.9784132 C67.2611107,34.4458703 66.5887744,33.6841955 66.1176301,32.69213 C65.6464851,31.7013234 65.4109132,30.5279667 65.4109132,29.1720597 C65.4109132,27.8186707 65.6426651,26.645314 66.1087165,25.6532484 C66.5734938,24.6611828 67.2432836,23.8995081 68.1180841,23.3669653 C68.9916117,22.8344225 70.0294034,22.5687806 71.2276388,22.5687806 C72.4271471,22.5687806 73.4662118,22.8344225 74.3473799,23.3669653 C75.2285475,23.8995081 75.9008837,24.657406 76.365661,25.6431767 C76.8304389,26.6302064 77.0634644,27.7997863 77.0634644,29.1544342 C77.0634644,30.5090821 76.8278925,31.6849568 76.3567475,32.6833172 C75.8856031,33.6816777 75.2132669,34.4458703 74.3384664,34.9784132 C73.4636653,35.5109559 72.4271471,35.7765979 71.2276388,35.7765979 C70.0408634,35.7765979 69.0107123,35.5109559 68.1359112,34.9784132 M74.6504401,33.3090236 C75.46412,32.3295477 75.8703225,30.9446845 75.8703225,29.1544342 C75.8703225,27.3641839 75.4666664,25.9856155 74.6593536,25.0174703 C73.8520414,24.0505841 72.7085608,23.565882 71.2276388,23.565882 C69.7594503,23.565882 68.6185162,24.053102 67.8061104,25.0262831 C66.9924306,26.0007232 66.5849544,27.3767735 66.5849544,29.1544342 C66.5849544,30.9320949 66.9924306,32.3144401 67.8061104,33.3002108 C68.6185162,34.2859816 69.7594503,34.7782375 71.2276388,34.7782375 C72.6958272,34.7782375 73.8367608,34.2884995 74.6504401,33.3090236" id="Fill-16" fill="#CBB10E" fill-rule="nonzero"></path>
                    </g>
                    <polygon id="Fill-19" fill="#CBB10E" fill-rule="nonzero" points="82.4444444 35 82.4444444 21.6666667 83.5355026 21.6666667 83.5355026 33.9890524 90.015873 33.9890524 90.015873 35"></polygon>
                    <g id="Group-24" transform="translate(49.634921, 5.000000)" fill-rule="nonzero">
                        <path d="M45.0901966,17.3866249 L49.3422991,17.3866249 C51.4464456,17.3866249 53.0686871,17.9557958 54.2077351,19.0941376 C55.3467832,20.2324793 55.9163072,21.8588658 55.9163072,23.9745847 C55.9163072,26.0903036 55.3429176,27.7231286 54.1987155,28.8743476 C53.0532249,30.0242787 51.4348489,30.5998882 49.3422991,30.5998882 L45.0901966,30.5998882 L45.0901966,17.3866249 Z M49.2868929,29.5980445 C51.0817955,29.5980445 52.4308718,29.1241647 53.3354099,28.1776927 C54.2386596,27.2312207 54.6909286,25.8301847 54.6909286,23.9745847 C54.6909286,20.2505074 52.8895834,18.3884687 49.2868929,18.3884687 L46.2408414,18.3884687 L46.2408414,29.5980445 L49.2868929,29.5980445 Z" id="Fill-20" fill="#CBB10E"></path>
                        <path d="M0.561921785,0.282396319 L6.05873062,0.282396319 C7.44517374,0.282396319 8.52495007,0.619778147 9.29805961,1.29325409 C10.0724577,1.96801776 10.4590125,2.88615992 10.4590125,4.04896829 C10.4590125,5.21306438 10.0660151,6.13120655 9.28002036,6.80468245 C8.4940257,7.47944612 7.41940339,7.81682795 6.05873062,7.81682795 L2.47407938,7.81682795 L2.47407938,13.4956596 L0.561921785,13.4956596 L0.561921785,0.282396319 Z M5.83581738,6.29474661 C6.75195221,6.29474661 7.44130817,6.10287677 7.90646241,5.71913712 C8.37032814,5.3366852 8.60226101,4.77910377 8.60226101,4.04896829 C8.60226101,3.33170996 8.37032814,2.78185484 7.90646241,2.3981152 C7.44130817,2.01437557 6.75195221,1.82250575 5.83581738,1.82250575 L2.47407938,1.82250575 L2.47407938,6.29474661 L5.83581738,6.29474661 Z" id="Fill-22" fill="#808184"></path>
                    </g>
                    <path d="M72.9157397,19.1666667 L71.4992042,15.8713414 L64.7878039,15.8713414 L63.3699752,19.1666667 L61.4126984,19.1666667 L67.3233365,5.83333333 L68.9442668,5.83333333 L74.8730159,19.1666667 L72.9157397,19.1666667 Z M65.4397978,14.3354286 L70.8459165,14.3354286 L68.143504,7.98776924 L65.4397978,14.3354286 Z" id="Fill-25" fill="#808184" fill-rule="nonzero"></path>
                    <polygon id="Fill-26" fill="#808184" fill-rule="nonzero" points="84.3389156 12.368746 89.1746032 19.1666667 86.997615 19.1666667 83.2863335 13.811241 79.5738136 19.1666667 77.3968254 19.1666667 82.2325124 12.3505524 77.6110568 5.83333333 79.7707084 5.83333333 83.3036702 10.9262508 86.8192953 5.83333333 88.9962835 5.83333333"></polygon>
                </g>
            </g>
        </g>
    </g>
</svg>