<?xml version="1.0" encoding="UTF-8"?>
<svg width="16px" height="16px" viewBox="0 0 16 16" version="1.1" xmlns="http://www.w3.org/2000/svg" xmlns:xlink="http://www.w3.org/1999/xlink">
    <!-- Generator: Sketch 61.2 (89653) - https://sketch.com -->
    <title>img_en</title>
    <desc>Created with Sketch.</desc>
    <g id="页面-1" stroke="none" stroke-width="1" fill="none" fill-rule="evenodd">
        <g id="GOLDx---交互" transform="translate(-1333.000000, -135.000000)" fill="#999DAB" fill-rule="nonzero">
            <g id="切换语言下拉菜单" transform="translate(1323.000000, 74.000000)">
                <g id="img_en" transform="translate(10.000000, 61.000000)">
                    <path d="M8.2440201,0.0064321608 C8.19497487,0.00361809045 8.14633166,0 8.09648241,0 C8.08361809,0 8.07075377,0.0016080402 8.05788945,0.0016080402 C8.0361809,0.0016080402 8.01447236,0 7.99236181,0 C3.58552764,0 0,3.58552764 0,7.99236181 C0,12.4 3.58552764,15.9855276 7.99276382,15.9855276 C12.4,15.9855276 15.9855276,12.399598 15.9855276,7.99236181 C15.9855276,3.67035176 12.5346734,0.139497487 8.2440201,0.0064321608 Z M8.1759799,14.8529816 C8.15883704,14.8529816 8.14264657,14.8606616 8.12550371,14.8606616 C8.10836085,14.8606616 8.09217038,14.8555416 8.0759799,14.8529816 L8.1759799,14.8529816 Z M7.41145729,14.6637186 C6.6038191,14.3059296 5.89427136,13.3330653 5.41065327,12.0080402 C6.0672493,11.8492984 6.7369604,11.7507996 7.41145729,11.7137688 L7.41145729,14.6637186 L7.41145729,14.6637186 Z M7.41145729,10.5503518 C6.62465292,10.5905019 5.84355205,10.706415 5.07899497,10.8964824 C4.90012643,10.1340934 4.79378997,9.35649118 4.76140704,8.57407035 L7.41145729,8.57407035 L7.41145729,10.5503518 Z M4.76100503,7.41145729 C4.80040201,6.50492462 4.93105528,5.64261307 5.13407035,4.8639196 C5.85366834,5.04 6.62030151,5.15095477 7.41145729,5.1919598 L7.41145729,7.41145729 L4.76100503,7.41145729 L4.76100503,7.41145729 Z M7.41145729,4.02773869 C6.76558776,3.99077749 6.12413073,3.89796865 5.49427136,3.75035176 C5.97427136,2.53788945 6.64924623,1.6518593 7.41145729,1.31417085 L7.41145729,4.02773869 L7.41145729,4.02773869 Z M8.57366834,5.20241206 C9.41161012,5.17374223 10.2444519,5.05978717 11.0592965,4.86231156 C11.2727068,5.69659185 11.3977501,6.55100998 11.4323618,7.41145729 L8.57407035,7.41145729 L8.57407035,5.20241206 L8.57366834,5.20241206 Z M8.57366834,4.03859296 L8.57366834,1.2361809 C9.42190955,1.49507538 10.1776884,2.43095477 10.7007035,3.75557789 C10.0309548,3.91356784 9.31376884,4.00924623 8.57407035,4.03859296 L8.57366834,4.03859296 Z M11.0319598,1.87819095 C11.6363674,2.1801735 12.192858,2.56977111 12.6834171,3.03437186 C12.4120603,3.17628141 12.1222111,3.30371859 11.8178894,3.41788945 C11.5951759,2.8438191 11.3310553,2.32683417 11.0319598,1.87819095 L11.0319598,1.87819095 Z M4.37668342,3.41507538 C4.03349026,3.28825574 3.69989397,3.13684091 3.37849246,2.96201005 C3.93382297,2.4522668 4.56950797,2.03771326 5.2598995,1.73507538 C4.92100503,2.21427136 4.62311558,2.78030151 4.37668342,3.41547739 L4.37668342,3.41507538 Z M4.01688442,4.5238191 C3.78291457,5.40422111 3.63778894,6.37829146 3.59798995,7.41145729 L1.18914573,7.41145729 C1.29864272,6.11371172 1.77896321,4.87481419 2.57286432,3.84241206 C3.03158533,4.11414918 3.51477144,4.34228301 4.0160804,4.5238191 L4.01688442,4.5238191 Z M3.59798995,8.57407035 C3.63497487,9.52281407 3.76160804,10.4201005 3.96341709,11.241407 C3.43587306,11.4358605 2.92909703,11.6825821 2.45065327,11.9778894 C1.72902926,10.9787981 1.29294112,9.80213841 1.18914573,8.57407035 L3.59798995,8.57407035 Z M4.29869347,12.3533668 C4.56160804,13.078995 4.88924623,13.720603 5.26874372,14.2548744 C4.50580721,13.9211397 3.81008421,13.4511486 3.21567839,12.8679397 C3.56204994,12.6671742 3.92426257,12.4950762 4.29869347,12.3533668 L4.29869347,12.3533668 Z M8.57366834,14.7413065 L8.57366834,11.7029146 C9.34231156,11.7338693 10.0876382,11.839196 10.7823116,12.0096482 C10.2576884,13.4464322 9.46653266,14.4687437 8.57366834,14.7417085 L8.57366834,14.7413065 Z M8.57366834,10.5386935 L8.57366834,8.57407035 L11.4319598,8.57407035 C11.399693,9.35441467 11.2938979,10.1299764 11.1159799,10.8904523 C10.2831303,10.6848524 9.43105443,10.5669576 8.57366834,10.5386935 L8.57366834,10.5386935 Z M12.5957789,8.57407035 L14.7963819,8.57407035 C14.6959071,9.76483503 14.2827859,10.9079562 13.598794,11.8878392 C13.1634487,11.6302897 12.705868,11.41233 12.2315578,11.2365829 C12.4325628,10.4160804 12.558392,9.52 12.5957789,8.57407035 L12.5957789,8.57407035 Z M12.5957789,7.41145729 C12.5555779,6.37829146 12.4108543,5.40422111 12.1768844,4.5238191 C12.6258306,4.36050371 13.0605378,4.16042813 13.4765829,3.92562814 C14.2329738,4.94176013 14.6901227,6.14917348 14.7963819,7.41145729 L12.5957789,7.41145729 L12.5957789,7.41145729 Z M11.0243216,14.1113568 C11.3620101,13.6072362 11.6554774,13.0158794 11.8946734,12.3545729 C12.2323618,12.4840201 12.5511558,12.6311558 12.8450251,12.7947739 C12.3144076,13.330484 11.699298,13.7752806 11.0243216,14.1113568 L11.0243216,14.1113568 Z" id="形状"></path>
                </g>
            </g>
        </g>
    </g>
</svg>