<?xml version="1.0" encoding="UTF-8"?>
<svg width="22px" height="22px" viewBox="0 0 22 22" version="1.1" xmlns="http://www.w3.org/2000/svg" xmlns:xlink="http://www.w3.org/1999/xlink">
    <!-- Generator: Sketch 61.2 (89653) - https://sketch.com -->
    <title>img_fqa_1</title>
    <desc>Created with Sketch.</desc>
    <g id="控件" stroke="none" stroke-width="1" fill="none" fill-rule="evenodd">
        <g id="img_fqa_1" transform="translate(1.000000, 1.000000)" fill="#898C9D" fill-rule="nonzero">
            <path d="M2.77240433,11.2775069 L9.71942132,11.2775069 C10.5524518,11.2775069 11.2277564,10.6139766 11.2277564,9.79547038 C11.2277564,8.9769642 10.5524518,8.31343384 9.71942132,8.31343384 L5.79259595,8.31343384 C5.02701772,8.31343384 4.40639395,7.70363092 4.40639395,6.9514009 C4.40639395,6.19917088 5.02701772,5.58936796 5.79259595,5.58936796 L9.71910118,5.58936796 C12.0794863,5.58936796 14.0000003,7.47671153 14.0000003,9.79562765 C14.0000003,12.1145438 12.0794863,14 9.71910118,14 L2.57007646,14 C1.15132083,13.9984398 0.00158817663,12.8687533 3.12095835e-07,11.4747343 L3.12095835e-07,1.36203294 C3.12095835e-07,1.02781309 0.122515959,0.721709391 0.325826719,0.484714955 C0.573385802,0.187994083 0.939573143,0 1.34822469,0 L9.32828074,0 C14.6610842,0 19.0000003,4.48615583 19.0000003,10.0006439 C19.0000003,15.515132 14.6610842,20 9.32828074,20 L1.3500929,20 C0.605489169,20 0.00186860176,19.3758509 0.00186860176,18.605924 C0.00186860176,17.8359971 0.605489169,17.2118481 1.3500929,17.211848 L9.32828074,17.211848 C13.174301,17.211848 16.3029288,13.9764971 16.3029288,10 C16.3029288,6.0235029 13.1739896,2.78815196 9.32828074,2.78815196 L2.77200031,2.788 L2.77240433,11.2775069 Z"></path>
        </g>
    </g>
</svg>