<?xml version="1.0" encoding="UTF-8"?>
<svg width="22px" height="22px" viewBox="0 0 22 22" version="1.1" xmlns="http://www.w3.org/2000/svg" xmlns:xlink="http://www.w3.org/1999/xlink">
    <!-- Generator: Sketch 61.2 (89653) - https://sketch.com -->
    <title>img_fqa_2</title>
    <desc>Created with Sketch.</desc>
    <g id="控件" stroke="none" stroke-width="1" fill="none" fill-rule="evenodd">
        <g id="img_fqa_1" transform="translate(1.000000, -83.000000)" fill="#898C9D" fill-rule="nonzero">
            <path d="M13.0978548,92.2487898 C15.2231461,84.400843 11.6334924,84 11.6334924,84 C10.1120322,84 10.4275122,85.2029003 10.3123772,85.4034201 C10.3123772,89.2413425 6.23511974,92.2487898 6.23511974,92.2487898 L6.23511974,103.132602 C6.23511974,104.206912 7.69954761,104.59395 8.27397784,104.59395 L16.514926,104.59395 C17.290575,104.59395 17.9220812,102.560247 17.9220812,102.560247 C19.9609393,95.6287714 19.9609393,93.566432 19.9609393,93.566432 C19.9609393,92.1343538 18.5827262,92.2487898 18.5827262,92.2487898 L13.0978548,92.2487898 Z M3.98433975,92.2523252 L0.700052822,92.2523252 C0.0217586155,92.2523252 0.0112739204,92.9185216 0.0112739204,92.9185216 L0.689568127,103.895211 C0.689568127,104.593972 1.38955254,104.593972 1.38955254,104.593972 L4.23219353,104.593972 C4.82438219,104.593972 4.81916248,104.131728 4.81916248,104.131728 L4.81916248,93.0846821 C4.81916248,92.2417564 3.98433975,92.2523252 3.98433975,92.2523252 L3.98433975,92.2523252 L3.98433975,92.2523252 Z" id="img_fqa_2"></path>
        </g>
    </g>
</svg>