<?xml version="1.0" encoding="UTF-8"?>
<svg width="22px" height="22px" viewBox="0 0 22 22" version="1.1" xmlns="http://www.w3.org/2000/svg" xmlns:xlink="http://www.w3.org/1999/xlink">
    <!-- Generator: Sketch 61.2 (89653) - https://sketch.com -->
    <title>img_fqa_3</title>
    <desc>Created with Sketch.</desc>
    <g id="控件" stroke="none" stroke-width="1" fill="none" fill-rule="evenodd">
        <g id="img_fqa_1" transform="translate(1.000000, -362.000000)" fill="#898C9D" fill-rule="nonzero">
            <path d="M11.2390774,369.243927 C12.6189875,369.243927 13.7366526,370.361592 13.7366526,371.741502 L13.7366526,371.741502 L13.7366526,380.483004 C13.7366526,381.862914 12.6189875,382.980579 11.2390774,382.980579 L11.2390774,382.980579 L2.49757554,382.980579 C1.1176654,382.980579 3.12095582e-07,381.862914 3.12095582e-07,380.483004 L3.12095582e-07,380.483004 L3.12095582e-07,371.741502 C3.12095582e-07,370.361592 1.1189217,369.243927 2.49757554,369.243927 L2.49757554,369.243927 Z M9.99030116,371.741525 L3.74637455,371.741525 C3.05705906,371.741525 2.49759837,372.300963 2.49759837,372.990301 L2.49759837,372.990301 L2.49759837,379.234228 C2.49759837,379.923566 3.05703623,380.483027 3.74637458,380.483027 L3.74637458,380.483027 L9.99030118,380.483027 C10.6796167,380.483027 11.2390774,379.923566 11.2390774,379.234227 L11.2390774,379.234227 L11.2390774,372.990301 C11.2390774,372.300985 10.6796395,371.741525 9.99030116,371.741525 L9.99030116,371.741525 Z M13.7366526,363 C17.1845549,363 19.9805792,365.794791 19.9805792,369.243927 C19.9805792,372.264759 17.8351767,374.783554 14.9854516,375.361744 L14.9854516,370.492726 C14.9854516,369.114072 13.8677865,367.99515 12.4878764,367.99515 L7.61885759,367.99515 C8.19704844,365.145425 10.7158435,363 13.7366526,363 Z" id="img_fqa_3"></path>
        </g>
    </g>
</svg>