<?xml version="1.0" encoding="UTF-8"?>
<svg width="22px" height="22px" viewBox="0 0 22 22" version="1.1" xmlns="http://www.w3.org/2000/svg" xmlns:xlink="http://www.w3.org/1999/xlink">
    <!-- Generator: Sketch 61.2 (89653) - https://sketch.com -->
    <title>img_fqa_4</title>
    <desc>Created with Sketch.</desc>
    <g id="控件" stroke="none" stroke-width="1" fill="none" fill-rule="evenodd">
        <g id="img_fqa_1" transform="translate(1.000000, -452.000000)" fill="#898C9D" fill-rule="nonzero">
            <path d="M9.95755089,453.002835 C4.45971439,453.002835 0.00283577543,457.459714 0.00283577543,462.957551 C0.00283577543,468.455387 4.45971439,472.912266 9.95755089,472.912266 C15.4553874,472.912266 19.912266,468.455387 19.912266,462.957551 C19.912266,457.459714 15.4553874,453.002835 9.95755089,453.002835 Z M15.0398961,465.999632 L7.71989606,466.006931 L8.90186138,467.999896 L7.23236511,468.938393 C7.23236511,468.938393 4.87517271,465.375816 4.87517271,464.99035 C4.87517271,464.954512 4.89188617,464.923925 4.89565164,464.889177 C4.89809589,464.859747 4.90192745,464.83144 4.91375239,464.799367 C5.00603976,464.332778 5.39791424,463.974099 5.89145676,463.974099 L6.14519748,463.974099 C6.2249993,463.962968 6.29185314,463.965808 6.35513967,463.974099 L15.0398961,463.966777 L15.0398961,465.999632 Z M15.0194171,461.025924 C15.0167416,461.05509 15.0131413,461.083628 15.0010851,461.115767 C14.909029,461.582357 14.5169233,461.941035 14.0233808,461.941035 L13.7696401,461.941035 C13.6898713,461.952167 13.6229844,461.94926 13.559863,461.941035 L4.87517266,461.883958 L4.87517266,459.851093 L12.1949084,459.90817 L11.0131743,457.914974 L12.6824394,456.976708 C12.6824394,456.976708 15.039896,460.53902 15.039896,460.924454 C15.039896,460.960556 15.0229514,460.990878 15.0194171,461.025924 Z" id="img_fqa_4"></path>
        </g>
    </g>
</svg>