<?xml version="1.0" encoding="UTF-8"?>
<svg width="22px" height="22px" viewBox="0 0 22 22" version="1.1" xmlns="http://www.w3.org/2000/svg" xmlns:xlink="http://www.w3.org/1999/xlink">
    <!-- Generator: Sketch 61.2 (89653) - https://sketch.com -->
    <title>img_fqa_5</title>
    <desc>Created with Sketch.</desc>
    <g id="控件" stroke="none" stroke-width="1" fill="none" fill-rule="evenodd">
        <g id="img_fqa_1" transform="translate(1.000000, -542.000000)" fill="#898C9D" fill-rule="nonzero">
            <path d="M9.30383658,545.668398 C9.30383658,545.337046 8.9724852,545.071965 8.64113384,545.071965 L3.00816051,545.071965 C2.67680913,545.071965 2.41172803,545.337046 2.34545775,545.602128 L0.0259981473,559.187534 C-0.0402721209,559.386345 0.0259981473,559.585156 0.158538684,559.717696 C0.291079239,559.850237 0.489890063,559.982777 0.688700887,559.982777 L9.90026906,559.982777 C10.0990799,559.982777 10.2978907,559.850237 10.4304313,559.717696 C10.5629718,559.518885 10.5629718,559.386345 10.4967015,559.121264 L9.30383658,545.668398 Z M17.7201615,552.162885 C17.9189723,552.162885 18.1177831,552.096614 18.2503237,551.897804 C18.3828642,551.765263 18.4491345,551.500182 18.3828642,551.301371 L17.123729,545.535857 C17.0574587,545.204506 16.7923776,545.005695 16.4610262,545.005695 L10.7617826,545.005695 C10.5629718,545.005695 10.364161,545.071965 10.2316204,545.270776 C10.0990799,545.403317 10.0328096,545.668398 10.0990799,545.867209 L11.3582151,551.632723 C11.4244854,551.964074 11.6895665,552.162885 12.0209179,552.162885 L17.7201615,552.162885 Z M18.6479453,553.35575 C18.581675,553.024398 18.3165939,552.825588 17.9852426,552.825588 L12.2859989,552.825588 C12.0871881,552.825588 11.8883773,552.891858 11.7558368,553.090669 C11.6232962,553.223209 11.5570259,553.48829 11.6232962,553.687101 L12.8824314,559.452615 C12.9487017,559.783966 13.2137828,559.982777 13.5451342,559.982777 L19.2443778,559.982777 C19.4431886,559.982777 19.6419994,559.916507 19.77454,559.717696 C19.9070805,559.518885 19.9070805,559.320074 19.9070805,559.121264 L18.6479453,553.35575 L18.6479453,553.35575 Z" id="img_fqa_5"></path>
        </g>
    </g>
</svg>