<?xml version="1.0" encoding="UTF-8"?>
<svg width="48px" height="48px" viewBox="0 0 48 48" version="1.1" xmlns="http://www.w3.org/2000/svg" xmlns:xlink="http://www.w3.org/1999/xlink">
    <title>img_footer_7</title>
    <g id="页面-1" stroke="none" stroke-width="1" fill="none" fill-rule="evenodd">
        <g id="GLODx---EN" transform="translate(-709.000000, -4028.000000)" fill="#FFFFFF" fill-rule="nonzero">
            <g id="版权信息---订阅" transform="translate(0.000000, 3855.000000)">
                <g id="版权信息">
                    <g id="社区" transform="translate(361.000000, 173.000000)">
                        <g id="img_footer_7" transform="translate(348.000000, 0.000000)">
                            <circle id="Oval备份-4" opacity="0.0953543527" cx="24" cy="24" r="24"></circle>
                            <path d="M29.8179719,18.3545202 L28.756192,18.2454332 C25.5792572,17.9181889 22.377108,17.9181889 19.2001732,18.2454332 L18.1820281,18.3545202 C16.9249956,18.496597 15.9810568,19.5695407 16.0002887,20.8344307 L16.0002887,26.7978519 C15.9810568,28.0627419 16.9249956,29.1356856 18.1820281,29.2777624 L19.243808,29.3868494 C22.4207428,29.7140936 25.622892,29.7140936 28.7998268,29.3868494 L29.8179719,29.2777624 C31.0750044,29.1356856 32.0189432,28.0627419 31.9997113,26.7978519 L31.9997113,20.8344307 C32.0189432,19.5695407 31.0750044,18.496597 29.8179719,18.3545202 L29.8179719,18.3545202 Z M26.1817395,24.2670341 L23.3527506,26.157875 C23.1880237,26.2483103 22.9883443,26.2475801 22.8242833,26.1559424 C22.6602222,26.0643047 22.5548877,25.8946667 22.545507,25.7069821 L22.545507,21.9253004 C22.5458749,21.7237006 22.6574147,21.5387434 22.8355495,21.4443472 C23.0136842,21.349951 23.2293614,21.3615111 23.3963854,21.4744076 L26.2253742,23.3652485 C26.3778129,23.4645746 26.4697435,23.6341984 26.4697435,23.8161413 C26.4697435,23.9980841 26.3778129,24.167708 26.2253742,24.2670341 L26.1817395,24.2670341 Z" id="形状"></path>
                        </g>
                    </g>
                </g>
            </g>
        </g>
    </g>
</svg>