<?xml version="1.0" encoding="UTF-8"?>
<svg width="48px" height="48px" viewBox="0 0 48 48" version="1.1" xmlns="http://www.w3.org/2000/svg" xmlns:xlink="http://www.w3.org/1999/xlink">
    <!-- Generator: Sketch 61.2 (89653) - https://sketch.com -->
    <title>img_footer_1</title>
    <desc>Created with Sketch.</desc>
    <g id="控件" stroke="none" stroke-width="1" fill="none" fill-rule="evenodd">
        <g id="版权信息---订阅" transform="translate(-364.000000, -191.000000)" fill="#FFFFFF" fill-rule="nonzero">
            <g id="版权信息">
                <g id="社区" transform="translate(364.000000, 191.000000)">
                    <g id="img_footer_1">
                        <circle id="Oval" opacity="0.0953543527" cx="24" cy="24" r="24"></circle>
                        <path d="M32,18.54 C31.412,18.8013333 30.7786667,18.9773333 30.1146667,19.0573333 C30.7933333,18.6506667 31.312,18.008 31.5586667,17.2413333 C30.924,17.6173333 30.2213333,17.8906667 29.4733333,18.0373333 C28.876,17.3986667 28.0213333,17 27.0786667,17 C24.9586667,17 23.4013333,18.9773333 23.88,21.0306667 C21.1533333,20.8933333 18.7333333,19.5866667 17.1146667,17.6013333 C16.2546667,19.076 16.6693333,21.0066667 18.1306667,21.984 C17.5933333,21.9666667 17.088,21.8186667 16.6453333,21.5733333 C16.6093333,23.0933333 17.7,24.516 19.2786667,24.8333333 C18.8173333,24.9586667 18.3106667,24.988 17.796,24.8893333 C18.2133333,26.1933333 19.428,27.1413333 20.8626667,27.168 C19.48,28.2506667 17.7426667,28.7346667 16,28.5293333 C17.4533333,29.4613333 19.1773333,30.004 21.0306667,30.004 C27.1266667,30.004 30.5693333,24.856 30.3613333,20.2386667 C31.004,19.7773333 31.56,19.1986667 32,18.54 L32,18.54 Z" id="twitter"></path>
                    </g>
                </g>
            </g>
        </g>
    </g>
</svg>