<?xml version="1.0" encoding="UTF-8"?>
<svg width="48px" height="48px" viewBox="0 0 48 48" version="1.1" xmlns="http://www.w3.org/2000/svg" xmlns:xlink="http://www.w3.org/1999/xlink">
    <!-- Generator: Sketch 61.2 (89653) - https://sketch.com -->
    <title>img_footer_2</title>
    <desc>Created with Sketch.</desc>
    <g id="控件" stroke="none" stroke-width="1" fill="none" fill-rule="evenodd">
        <g id="版权信息---订阅" transform="translate(-422.000000, -191.000000)" fill="#FFFFFF" fill-rule="nonzero">
            <g id="版权信息">
                <g id="社区" transform="translate(364.000000, 191.000000)">
                    <g id="img_footer_2" transform="translate(58.000000, 0.000000)">
                        <circle id="Oval备份" opacity="0.0953543527" cx="24" cy="24" r="24"></circle>
                        <path d="M16.2663338,22.3484869 L31.340824,16.0351436 C31.5006242,15.9816407 31.7136912,15.9816407 31.8202247,16.0886465 C31.980025,16.1956524 32.0332917,16.409664 31.980025,16.5701727 L28.2513525,31.6579931 C28.1980857,31.8185018 28.0915522,31.9255076 27.931752,31.9790106 C27.7719517,32.0325135 27.6121515,31.9790106 27.505618,31.8720047 L24.2563462,29.1433564 C24.0432792,28.9828476 23.7769455,28.9828476 23.6171452,29.1968593 L21.965876,30.8554495 C21.8060757,31.0159582 21.6462755,31.0159582 21.4332085,30.9624553 C21.2734082,30.9089524 21.1668747,30.6949407 21.1668747,30.534432 L21.1668747,27.00324 C21.1668747,26.8962342 21.2201415,26.7357254 21.326675,26.6822225 L28.0382855,19.8338502 L20.048273,25.8796789 C19.8884727,25.9866847 19.622139,25.9866847 19.4623387,25.8796789 L16.1598002,23.1510305 C16.0532667,23.0440247 16,22.883516 16,22.7230073 C16.0532667,22.5624985 16.1598002,22.4019898 16.2663338,22.3484869 Z" id="路径"></path>
                    </g>
                </g>
            </g>
        </g>
    </g>
</svg>