<?xml version="1.0" encoding="UTF-8"?>
<svg width="48px" height="48px" viewBox="0 0 48 48" version="1.1" xmlns="http://www.w3.org/2000/svg" xmlns:xlink="http://www.w3.org/1999/xlink">
    <!-- Generator: Sketch 61.2 (89653) - https://sketch.com -->
    <title>img_footer_5</title>
    <desc>Created with Sketch.</desc>
    <g id="控件" stroke="none" stroke-width="1" fill="none" fill-rule="evenodd">
        <g id="版权信息---订阅" transform="translate(-596.000000, -191.000000)" fill="#FFFFFF" fill-rule="nonzero">
            <g id="版权信息">
                <g id="社区" transform="translate(364.000000, 191.000000)">
                    <g id="img_footer_5" transform="translate(232.000000, 0.000000)">
                        <circle id="Oval备份-4" opacity="0.0953543527" cx="24" cy="24" r="24"></circle>
                        <path d="M26.4830339,26.0561594 C25.7245509,26.0561594 25.1097804,25.3934847 25.1097804,24.5791135 C25.1097804,23.7647422 25.7245509,23.1020675 26.4830339,23.1020675 C27.241517,23.1020675 27.8562874,23.7647422 27.8562874,24.5791135 C27.8483034,25.3934847 27.2335329,26.0561594 26.4830339,26.0561594 Z M21.4610778,26.0561594 C20.7025948,26.0561594 20.0878243,25.3934847 20.0878243,24.5791135 C20.0878243,23.7647422 20.7025948,23.1020675 21.4610778,23.1020675 C22.2195609,23.1020675 22.8343313,23.7647422 22.8343313,24.5791135 C22.8343313,25.3934847 22.2195609,26.0561594 21.4610778,26.0561594 Z M31.497006,23.6130456 C31.0179641,21.3455805 29.9800399,19.4373969 29.9800399,19.4373969 C27.9840319,17.9443829 26.1237525,18.0002711 26.1237525,18.0002711 L26.003992,18.1998719 C28.1836327,18.71085 29.5568862,19.964343 29.5568862,19.964343 C27.7684631,18.9423869 25.3493014,18.5910895 23.9680639,18.5910895 C22.5868263,18.5910895 20.1676647,18.9423869 18.3872255,19.964343 C18.3872255,19.964343 19.760479,18.71085 21.9401198,18.1998719 L21.8203593,18.0002711 C21.8203593,18.0002711 19.9520958,17.9443829 17.9640719,19.4373969 C17.9640719,19.4373969 16.9261477,21.3535645 16.4471058,23.6130456 C16.0319361,25.5691334 16,27.3495725 16,27.3495725 C16,27.3495725 16.7105788,28.3555606 17.756487,28.8505705 C18.7624751,29.3296125 19.5129741,29.4094528 20.1516966,29.4174368 L21.0858283,28.2996723 C21.0858283,28.2996723 19.5209581,27.8365985 18.6986028,26.718834 C18.6986028,26.718834 20.9101796,28.2517681 23.9760479,28.2517681 C27.0419162,28.2517681 29.253493,26.718834 29.253493,26.718834 C28.4311377,27.8365985 26.8662675,28.2996723 26.8662675,28.2996723 L27.8003992,29.4174368 C28.4391217,29.4094528 29.1896208,29.3216284 30.1956088,28.8505705 C31.241517,28.3555606 31.9520958,27.3495725 31.9520958,27.3495725 C31.9520958,27.3495725 31.9121757,25.5691334 31.497006,23.6130456 L31.497006,23.6130456 Z" id="形状"></path>
                    </g>
                </g>
            </g>
        </g>
    </g>
</svg>