<?xml version="1.0" encoding="UTF-8"?>
<svg width="48px" height="48px" viewBox="0 0 48 48" version="1.1" xmlns="http://www.w3.org/2000/svg" xmlns:xlink="http://www.w3.org/1999/xlink">
    <!-- Generator: Sketch 61.2 (89653) - https://sketch.com -->
    <title>img_footer_3</title>
    <desc>Created with Sketch.</desc>
    <g id="控件" stroke="none" stroke-width="1" fill="none" fill-rule="evenodd">
        <g id="版权信息---订阅" transform="translate(-480.000000, -191.000000)" fill="#FFFFFF" fill-rule="nonzero">
            <g id="版权信息">
                <g id="社区" transform="translate(364.000000, 191.000000)">
                    <g id="img_footer_3" transform="translate(116.000000, 0.000000)">
                        <circle id="Oval备份-2" opacity="0.0953543527" cx="24" cy="24" r="24"></circle>
                        <path d="M21.9972119,20.3688574 L21.9972119,30.1875 C21.9972119,30.3270117 21.962334,30.4455957 21.8925781,30.543252 C21.8228223,30.6409082 21.7209814,30.6897363 21.5870557,30.6897363 C21.4921924,30.6897363 21.4001172,30.6674121 21.3108301,30.6227637 L17.4185059,28.6724561 C17.3013184,28.6166455 17.2022705,28.5231738 17.1213623,28.392041 C17.0404541,28.2609082 17,28.1311572 17,28.0027881 L17,18.4603857 C17,18.3487744 17.0279004,18.2539063 17.0837012,18.1757813 C17.139502,18.0976563 17.2204199,18.0585938 17.3264551,18.0585938 C17.4045801,18.0585938 17.5273486,18.1004492 17.6947607,18.1841602 L21.9721045,20.3270068 C21.9888428,20.3437549 21.9972119,20.3577051 21.9972119,20.3688574 Z M22.5329199,21.214292 L27.0027881,28.4631738 L22.5329199,26.2366113 L22.5329199,21.214292 Z M32,21.3649365 L32,30.1874854 C32,30.3269971 31.9609375,30.44 31.8828125,30.5264941 C31.8046875,30.6129883 31.6986621,30.6562354 31.5647363,30.6562354 C31.4308105,30.6562354 31.2996729,30.6199658 31.1713232,30.5474268 L27.479917,28.7058984 L32,21.3649365 Z M31.9748926,20.3604932 C31.9748926,20.3772314 31.259209,21.54771 29.8278418,23.8719287 C28.3964746,26.1961475 27.5580273,27.5563623 27.3125,27.9525732 L24.0479932,22.6456494 L26.7600488,18.234375 C26.8549121,18.078125 27,18 27.1953125,18 C27.2734375,18 27.3459814,18.0167432 27.4129443,18.0502295 L31.9414062,20.310249 C31.9637305,20.3214111 31.9748926,20.3381543 31.9748926,20.3604785 L31.9748926,20.3604932 Z" id="形状"></path>
                    </g>
                </g>
            </g>
        </g>
    </g>
</svg>