<?xml version="1.0" encoding="UTF-8"?>
<svg width="48px" height="48px" viewBox="0 0 48 48" version="1.1" xmlns="http://www.w3.org/2000/svg" xmlns:xlink="http://www.w3.org/1999/xlink">
    <!-- Generator: Sketch 61.2 (89653) - https://sketch.com -->
    <title>img_footer_4</title>
    <desc>Created with Sketch.</desc>
    <g id="控件" stroke="none" stroke-width="1" fill="none" fill-rule="evenodd">
        <g id="版权信息---订阅" transform="translate(-538.000000, -191.000000)" fill="#FFFFFF" fill-rule="nonzero">
            <g id="版权信息">
                <g id="社区" transform="translate(364.000000, 191.000000)">
                    <g id="img_footer_4" transform="translate(174.000000, 0.000000)">
                        <circle id="Oval备份-3" opacity="0.0953543527" cx="24" cy="24" r="24"></circle>
                        <path d="M29.4412089,18.0002039 C30.2657358,18.0010858 30.933927,18.669277 30.9348089,19.4938039 C30.933927,20.3183309 30.2657358,20.9865221 29.4412089,20.9874039 C28.6696089,20.9874039 28.0404089,20.3982039 27.9628089,19.6462039 L27.9628089,19.6462039 L25.5324089,19.0786039 L24.6968089,21.0382039 C26.2452089,21.1542039 27.7008089,21.6142039 28.8120089,22.3862039 C29.1528089,22.1262039 29.5696089,21.9830039 30.0088089,21.9830039 C31.1080613,21.9841064 31.9989064,22.8749515 32.0000146,23.9742039 C32.0017903,24.7164303 31.5871055,25.3964948 30.9268089,25.7346039 C30.9316089,25.8110039 30.9348089,25.8878039 30.9348089,25.9654039 C30.9348089,28.7106039 27.8072089,30.9438039 23.9652089,30.9438039 C20.1220089,30.9438039 16.9956089,28.7106039 16.9956089,25.9658039 C16.9956089,25.8750039 16.9984089,25.7854039 17.0064089,25.6978039 C16.3834946,25.3479866 15.998495,24.6886213 16.0000044,23.9742039 C16.0011113,22.8749515 16.8919565,21.9841064 17.9912089,21.9830039 C18.4105762,21.980051 18.819731,22.1123214 19.1580089,22.3602039 C20.3608089,21.5398039 21.9536089,21.0690039 23.6256089,21.0110039 L23.6256089,21.0110039 L24.7808089,18.3030039 C24.8756204,18.0799539 25.1173427,17.9576569 25.3532089,18.0134039 L25.3532089,18.0134039 L28.1936089,18.6774039 C28.4683672,18.2554005 28.9376428,18.0006767 29.4412089,18.0002039 Z M26.1769192,27.9112583 C26.0140787,27.8386224 25.8248206,27.8586677 25.6808089,27.9638039 C24.6577798,28.7064611 23.273038,28.7064611 22.2500089,27.9638039 C22.1059594,27.8594824 21.9171973,27.8399348 21.7548274,27.9125245 C21.5924576,27.9851143 21.4811478,28.1388132 21.4628274,28.3157245 C21.444507,28.4926358 21.5219594,28.6658824 21.6660089,28.7702039 C23.0377172,29.7640275 24.8927005,29.7640275 26.2644089,28.7702039 C26.4089559,28.666361 26.4872618,28.4929002 26.4692753,28.3155038 C26.4512889,28.1381074 26.3397597,27.9838943 26.1769192,27.9112583 Z M21.4764089,24.4718039 C20.9266074,24.4724652 20.4810701,24.9180025 20.4804089,25.4678039 C20.4808497,26.0171407 20.9262723,26.4627423 21.4760089,26.4634039 C22.0255894,26.4627427 22.4709477,26.0173845 22.4716089,25.4678039 C22.4709487,24.9183142 22.0258979,24.4729056 21.4764089,24.4718039 Z M26.4544089,24.4722039 C25.9155416,24.4874806 25.4866337,24.9287202 25.4866337,25.4678039 C25.4866337,26.0068877 25.9155416,26.4481273 26.4544089,26.4634039 C26.9932761,26.4481273 27.4221841,26.0068877 27.4221841,25.4678039 C27.4221841,24.9287202 26.9932761,24.4874806 26.4544089,24.4722039 Z M29.4412089,18.9962039 C29.1672089,18.9962039 28.9432089,19.2190039 28.9432089,19.4938039 C28.9436493,19.7686591 29.1663537,19.9913635 29.4412089,19.9918039 C29.7148089,19.9918039 29.9388089,19.7686039 29.9388089,19.4938039 C29.9388089,19.2190039 29.7148089,18.9962039 29.4412089,18.9962039 Z" id="形状结合"></path>
                    </g>
                </g>
            </g>
        </g>
    </g>
</svg>