<?xml version="1.0" encoding="UTF-8"?>
<svg width="48px" height="48px" viewBox="0 0 48 48" version="1.1" xmlns="http://www.w3.org/2000/svg" xmlns:xlink="http://www.w3.org/1999/xlink">
    <title>img_footer_8</title>
    <g id="页面-1" stroke="none" stroke-width="1" fill="none" fill-rule="evenodd">
        <g id="GLODx---CN" transform="translate(-767.000000, -4028.000000)" fill="#FFFFFF" fill-rule="nonzero">
            <g id="版权信息---订阅" transform="translate(0.000000, 3855.000000)">
                <g id="版权信息">
                    <g id="社区" transform="translate(361.000000, 173.000000)">
                        <g id="img_footer_8" transform="translate(406.000000, 0.000000)">
                            <circle id="Oval备份-4" opacity="0.0953543527" cx="24" cy="24" r="24"></circle>
                            <path d="M26.83,20.943 C27.014,20.943 27.195,20.957 27.377,20.977 C26.887,18.695 24.448,17 21.663,17 C18.55,17 16,19.121 16,21.816 C16,23.371 16.848,24.648 18.266,25.64 L17.7,27.343 L19.68,26.351 C20.388,26.49 20.956,26.634 21.663,26.634 C21.841,26.634 22.017,26.626 22.191,26.613 C22.081,26.234 22.016,25.838 22.016,25.425 C22.017,22.951 24.141,20.943 26.83,20.943 Z M23.786,19.408 C24.214,19.408 24.495,19.689 24.495,20.115 C24.495,20.539 24.214,20.823 23.786,20.823 C23.363,20.823 22.937,20.539 22.937,20.115 C22.937,19.688 23.362,19.408 23.786,19.408 Z M19.823,20.823 C19.398,20.823 18.97,20.539 18.97,20.115 C18.97,19.689 19.398,19.408 19.823,19.408 C20.248,19.408 20.53,19.688 20.53,20.115 C20.53,20.539 20.248,20.823 19.823,20.823 Z M32,25.357 C32,23.093 29.734,21.248 27.189,21.248 C24.494,21.248 22.373,23.094 22.373,25.357 C22.373,27.627 24.495,29.466 27.189,29.466 C27.753,29.466 28.322,29.325 28.888,29.183 L30.441,30.035 L30.015,28.619 C31.152,27.765 32,26.634 32,25.357 Z M25.627,24.648 C25.346,24.648 25.061,24.368 25.061,24.082 C25.061,23.8 25.346,23.516 25.627,23.516 C26.057,23.516 26.336,23.8 26.336,24.082 C26.336,24.368 26.057,24.648 25.627,24.648 Z M28.742,24.648 C28.463,24.648 28.179,24.368 28.179,24.082 C28.179,23.8 28.462,23.516 28.742,23.516 C29.168,23.516 29.451,23.8 29.451,24.082 C29.451,24.368 29.168,24.648 28.742,24.648 Z" id="形状"></path>
                        </g>
                    </g>
                </g>
            </g>
        </g>
    </g>
</svg>