<?xml version="1.0" encoding="UTF-8"?>
<svg width="48px" height="48px" viewBox="0 0 48 48" version="1.1" xmlns="http://www.w3.org/2000/svg" xmlns:xlink="http://www.w3.org/1999/xlink">
    <title>img_footer_6</title>
    <g id="页面-1" stroke="none" stroke-width="1" fill="none" fill-rule="evenodd">
        <g id="GLODx---EN" transform="translate(-651.000000, -4028.000000)" fill="#FFFFFF" fill-rule="nonzero">
            <g id="版权信息---订阅" transform="translate(0.000000, 3855.000000)">
                <g id="版权信息">
                    <g id="社区" transform="translate(361.000000, 173.000000)">
                        <g id="img_footer_6" transform="translate(290.000000, 0.000000)">
                            <circle id="Oval备份-4" opacity="0.0953543527" cx="24" cy="24" r="24"></circle>
                            <g id="编组" transform="translate(17.000000, 17.000000)">
                                <path d="M13.9492754,12.6811594 L10.7688406,12.6811594 L10.7688406,8.13115943 C10.7688406,6.94039856 10.2711051,6.12753624 9.17735507,6.12753624 C8.34039855,6.12753624 7.87436594,6.67599639 7.65815217,7.20480073 C7.57699276,7.39501813 7.58967391,7.65878624 7.58967391,7.92318841 L7.58967391,12.6811594 L4.43840579,12.6811594 C4.43840579,12.6811594 4.4789855,4.62164856 4.43840579,3.88867754 L7.58967391,3.88867754 L7.58967391,5.26902174 C7.77545289,4.66539856 8.78170289,3.80434783 10.3896739,3.80434783 C12.3831522,3.80434783 13.9492754,5.06929348 13.9492754,7.79257247 L13.9492754,12.6811594 Z M1.57753622,3.17028986 L1.55851448,3.17028986 C0.613134048,3.17028986 0,2.47155798 0,1.58641304 C0,0.684148561 0.630887676,0 1.59528985,0 C2.55905796,0 3.15126811,0.682246387 3.17028985,1.58387682 C3.17028985,2.46902174 2.55905796,3.17028986 1.57753622,3.17028986 Z M0.634057961,3.80434783 L3.17028985,3.80434783 L3.17028985,12.6811594 L0.634057961,12.6811594 L0.634057961,3.80434783 Z" id="形状"></path>
                            </g>
                        </g>
                    </g>
                </g>
            </g>
        </g>
    </g>
</svg>