<?xml version="1.0" encoding="UTF-8"?>
<svg width="36px" height="36px" viewBox="0 0 36 36" version="1.1" xmlns="http://www.w3.org/2000/svg" xmlns:xlink="http://www.w3.org/1999/xlink">
    <!-- Generator: Sketch 61.2 (89653) - https://sketch.com -->
    <title>img_swap_dl</title>
    <desc>Created with Sketch.</desc>
    <g id="控件" stroke="none" stroke-width="1" fill="none" fill-rule="evenodd">
        <g id="img_swap_dl" transform="translate(1.000000, 1.000000)" fill-rule="nonzero">
            <g>
                <path d="M30.5437143,27.2630041 L28.3337241,25.0545905 L28.3337241,25.0531057 L12.0796532,8.7994301 L23.014968,8.7994301 L19.7339623,12.0803559 L29.8755812,22.2219185 C31.913484,17.1975083 30.9170144,11.2347879 26.8411707,7.15896718 C21.966301,2.28413989 14.3825781,1.79796682 8.94659701,5.66645012 L6.73672105,3.45670405 C13.4029746,-1.60691981 22.9428969,-1.11233294 29.028584,4.97313002 C35.1127862,11.0571463 35.6059765,20.5968365 30.5437143,27.2630041 Z" id="形状备份" fill="#FA9B00"></path>
                <path d="M23.014968,24.1076761 L12.0796532,24.1076761 L15.3592501,20.8280447 L4.83283319,10.300361 C1.91538118,15.5881879 2.67500224,22.3587094 7.15822089,26.8415145 C12.4094365,32.0928309 20.8023508,32.2549774 26.2664294,27.3601626 L28.4536522,29.5476749 C21.7774237,35.6455872 11.4299472,35.4864103 4.97236864,29.0288745 C-1.4867709,22.5700444 -1.64610401,12.2227433 4.45370796,5.54820004 L4.97233056,6.0668481 L4.97233056,6.06540138 L23.014968,24.1076761 Z" id="路径" fill="#EEEFF1"></path>
            </g>
        </g>
    </g>
</svg>