<?xml version="1.0" encoding="UTF-8"?>
<svg width="130px" height="50px" viewBox="0 0 130 50" version="1.1" xmlns="http://www.w3.org/2000/svg" xmlns:xlink="http://www.w3.org/1999/xlink">
    <title>imToken</title>
    <defs>
        <linearGradient x1="97.204%" y1="2.796%" x2="0%" y2="100%" id="linearGradient-1">
            <stop stop-color="#11C4D1" offset="0%"></stop>
            <stop stop-color="#0062AD" offset="100%"></stop>
        </linearGradient>
    </defs>
    <g id="控件" stroke="none" stroke-width="1" fill="none" fill-rule="evenodd">
        <g id="编组" transform="translate(-29.000000, -218.000000)" fill-rule="nonzero">
            <g id="编组-9备份">
                <g transform="translate(29.000000, 218.000000)">
                    <g id="5" transform="translate(6.000000, 13.000000)">
                        <path d="M27.18,1.22618182 C28.0429091,12.9141818 20.5298182,18.4385455 13.7945455,19.0276364 C7.53272727,19.5752727 1.63854545,15.7276364 1.12145455,9.816 C0.694909091,4.932 3.71345455,2.85272727 6.08509091,2.64545455 C8.52436364,2.43163636 10.5741818,4.11381818 10.752,6.15054545 C10.9232727,8.10872727 9.70145455,9 8.85163636,9.07418182 C8.17963636,9.13309091 7.33418182,8.72509091 7.25781818,7.84909091 C7.19236364,7.09636364 7.47818182,6.99381818 7.40836364,6.19418182 C7.284,4.77054545 6.04254545,4.60472727 5.36290909,4.66363636 C4.54036364,4.73563636 3.048,5.69563636 3.25745455,8.08690909 C3.468,10.4989091 5.78072727,12.4047273 8.81236364,12.1396364 C12.084,11.8538182 14.3618182,9.30654545 14.5330909,5.73381818 C14.5315407,5.54458762 14.57138,5.35730605 14.6498182,5.18509091 L14.6509091,5.18072727 C14.6861588,5.10589501 14.7273832,5.03402591 14.7741818,4.96581818 C14.844,4.86109091 14.9334545,4.74545455 15.0490909,4.61890909 C15.0501818,4.61563636 15.0501818,4.61563636 15.0523636,4.61563636 C15.1363636,4.52072727 15.2378182,4.41818182 15.3523636,4.308 C16.7814545,2.95963636 21.9283636,-0.220363636 26.796,0.786545455 C27.0072622,0.831836284 27.1635324,1.01074789 27.18,1.22618182" id="路径" fill="url(#linearGradient-1)"></path>
                        <g id="编组" transform="translate(37.090909, 1.636364)" fill="#11293B">
                            <rect id="矩形" x="0.316363636" y="4.59818182" width="2.38036364" height="11.268" rx="0.071"></rect>
                            <path d="M34.3036364,0.618545455 L34.3036364,2.37054545 C34.3024553,2.41186549 34.2686096,2.44474415 34.2272727,2.44472727 L29.7152727,2.44472727 C29.673513,2.44411372 29.6390069,2.47716178 29.6378182,2.51890909 L29.6378182,15.7952727 C29.6372477,15.8155284 29.6286499,15.8347268 29.6139179,15.8486403 C29.5991859,15.8625539 29.5795279,15.8700415 29.5592727,15.8694866 L27.2334545,15.8694866 C27.1921043,15.8700831 27.1577676,15.8376809 27.156,15.7963636 L27.156,2.51890909 C27.1548112,2.47716178 27.1203052,2.44411372 27.0785455,2.44472727 L22.1596364,2.44472727 C22.1182995,2.44474415 22.0844538,2.41186549 22.0832727,2.37054545 L22.0832727,0.618545455 C22.0844538,0.577225421 22.1182995,0.544246753 22.1596364,0.544246753 L34.2196364,0.544246753 C34.2414545,0.543272727 34.2632727,0.549818182 34.2785455,0.564 C34.2943354,0.577748977 34.303471,0.597609171 34.3036364,0.618545455 Z M22.7803636,8.68036364 L22.8043636,8.68472727 L22.8043636,15.7952727 C22.8031826,15.8365928 22.7693369,15.8694714 22.728,15.8694545 L20.556,15.8694545 C20.5357448,15.8700415 20.5160868,15.8625539 20.5013548,15.8486403 C20.4866229,15.8347268 20.478025,15.8155284 20.4774545,15.7952727 L20.4774545,10.3418182 C20.4774545,10.1105455 20.4818182,9.87818182 20.4818182,9.65018182 C20.4818182,9.53236364 20.4818182,9.41890909 20.4774545,9.30436364 C20.4774545,8.97381818 20.4556364,8.64327273 20.412,8.31381818 C20.2483636,7.12909091 19.7650909,6.26945455 18.0469091,6.29236364 C17.5497233,6.30839865 17.0630824,6.43986266 16.6254545,6.67636364 C16.116,6.97309091 15.5509091,7.38545455 15.2334545,7.96036364 C15.28396,8.3393795 15.3098325,8.72127179 15.3109091,9.10363636 L15.3109091,9.11563636 C15.3109091,9.17890909 15.3152727,9.24218182 15.3152727,9.30109091 L15.3152727,15.9512727 C15.314084,15.99302 15.2795779,16.0260681 15.2378182,16.025463 L13.1181818,16.025463 C13.0764221,16.0260681 13.041916,15.99302 13.0407273,15.9512727 L13.0407273,10.3352727 C13.0407273,9.09709091 13.1061818,7.80763636 12.4930909,7.00909091 C12.1221818,6.53018182 11.5952727,6.30545455 10.5665455,6.30545455 C10.1465455,6.30545455 9.59890909,6.45381818 9.17890909,6.65454545 C8.89090909,6.78872727 8.62254545,6.95781818 8.38036364,7.15854545 C8.03454545,7.464 7.78254545,7.85781818 7.78254545,8.30618182 L7.78254545,15.7985455 C7.7813644,15.8398655 7.74751872,15.8727441 7.70618182,15.8727273 L5.54290909,15.8727273 C5.50157219,15.8727441 5.46772651,15.8398655 5.46654545,15.7985455 L5.46654545,4.74545455 C5.46772651,4.70413451 5.50157219,4.67125585 5.54290909,4.67127273 L6.45381818,4.67127273 C6.82254545,4.67127273 7.14654545,4.90254545 7.25018182,5.24072727 L7.38763636,5.688 C7.38763636,5.71854545 7.40727273,5.74472727 7.43563636,5.75563636 C7.46509091,5.76654545 7.49781818,5.76 7.51963636,5.74036364 C8.48290909,4.83163636 9.86181818,4.39854545 11.1992727,4.39854545 C12.5869091,4.39854545 13.4847273,4.81636364 14.0683636,5.46872727 L14.0072727,5.39018182 C14.1861818,5.59309091 14.3421818,5.81236364 14.472,6.04581818 C14.4845994,6.06892937 14.507805,6.08432173 14.5339968,6.08694091 C14.5601886,6.08956009 14.5859827,6.0790677 14.6029091,6.05890909 C15.4810909,5.00509091 17.2145455,4.39963636 18.6098182,4.39963636 C21.7887273,4.39963636 22.788,6.56181818 22.788,8.676 L22.7792727,8.68036364 L22.7803636,8.68036364 Z M58.3134545,15.888 L55.9527273,15.888 C55.9283868,15.888 55.9054202,15.8767211 55.8905455,15.8574545 C55.0003636,14.6770909 54.3392727,13.536 54.0469091,13.176 L53.9934545,13.1105455 C53.508,12.5083636 52.5098182,11.2407273 51.1396364,11.0018182 C51.1149159,10.99807 51.0898703,11.0061492 51.072,11.0236364 L50.0629091,12.0643636 C50.0490496,12.0778336 50.0411874,12.0963099 50.0410909,12.1156364 L50.0410909,15.7941818 C50.0393233,15.8354991 50.0049867,15.8679013 49.9636364,15.8672727 L47.7665455,15.8672727 C47.7256167,15.8673103 47.6919359,15.835073 47.6901818,15.7941818 L47.6901818,0.366545455 C47.6913629,0.325225421 47.7252085,0.29236363 47.7665455,0.29236363 L49.9636364,0.29236363 C50.0072727,0.29236363 50.0410909,0.325090909 50.0410909,0.366545455 L50.0410909,9.25090909 C50.0421818,9.28036364 50.0607273,9.30545455 50.0890909,9.31636364 C50.1174545,9.32727273 50.1490909,9.32290909 50.172,9.30327273 L55.0047273,4.45854545 C55.0194641,4.44458712 55.0389748,4.43678285 55.0592727,4.43672727 L57.6512727,4.43672727 C57.6818182,4.43781818 57.708,4.45527273 57.72,4.48254545 C57.7315451,4.5091915 57.7259527,4.5401648 57.7058182,4.56109091 L52.7694545,9.48109091 C52.7526691,9.4979787 52.7453183,9.52207293 52.7498182,9.54545455 C52.7541818,9.56727273 52.7694545,9.588 52.7912727,9.59781818 C54.2138182,10.2512727 55.2010909,11.4741818 55.6603636,12.0425455 L55.7116364,12.1069091 C56.1043636,12.5912727 57.4134545,14.4927273 58.3810909,15.7778182 C58.3946148,15.8003051 58.3946148,15.8284222 58.3810909,15.8509091 C58.3669981,15.8735973 58.3423417,15.8875692 58.3156364,15.888 L58.3134545,15.888 Z" id="形状"></path>
                            <ellipse id="椭圆形" cx="1.50654545" cy="1.428" rx="1.43890909" ry="1.37454545"></ellipse>
                            <path d="M39.6785455,4.11490909 C36.2454545,4.11490909 33.9970909,6.3 33.9970909,10.0276364 C33.9970909,13.7694545 36.2552727,15.9414545 39.6785455,15.9414545 C43.1007273,15.9414545 45.3578182,13.7683636 45.3578182,10.0287273 C45.3578182,6.30654545 43.092,4.11490909 39.6785455,4.11490909 Z M39.6785455,14.0890909 C37.3592727,14.0890909 36.2465455,12.5694545 36.2465455,9.91636364 C36.2465455,7.27854545 37.3592727,5.96509091 39.6785455,5.96509091 C41.9978182,5.96509091 43.1029091,7.38763636 43.1029091,10.0254545 C43.1029091,12.6643636 41.9901818,14.0890909 39.6785455,14.0890909 L39.6785455,14.0890909 Z M65.1294545,14.2363636 C63.888,14.4032727 62.6541818,13.8872727 61.9396364,12.9032727 C61.5578182,12.4123636 61.356,11.8429091 61.2196364,11.0956364 C61.2167556,11.0762828 61.2218756,11.0565904 61.2338182,11.0410909 C61.2461578,11.0252104 61.2641187,11.0146681 61.284,11.0116364 L67.5545455,10.1661818 C69.2738182,9.924 69.9927273,8.43927273 69.3436364,7.00690909 C68.7514581,5.81184053 67.7286964,4.88535246 66.4810909,4.41381818 C64.7792727,3.75490909 62.4894545,4.14 61.2687273,5.112 C59.64,6.41018182 59.0836364,7.97127273 58.9974545,9.63054545 C58.9865455,9.816 58.9821818,10.0014545 58.9821818,10.1869091 C58.9821818,10.5709091 59.0149091,10.9538182 59.0825455,11.3323636 C59.5123636,13.8196364 61.3396364,16.104 64.4007273,16.1149533 C67.8654545,16.1258182 69.5018182,14.1141818 69.7821818,12.6065455 C69.7853779,12.583511 69.7772516,12.5603511 69.7603636,12.5443636 C69.742992,12.5275264 69.7189087,12.5194986 69.6949091,12.5225455 L67.5349091,12.8421818 C67.5123799,12.8464694 67.4926331,12.8598973 67.4803636,12.8792727 C66.8869091,13.7029091 66.1963636,14.0792727 65.1294545,14.2363636 L65.1294545,14.2363636 Z M61.8894545,7.18472727 C62.4964207,6.44250007 63.3849273,5.98638946 64.3418182,5.92581818 C65.3181818,5.84727273 66.1090909,5.97927273 66.8029091,6.63490909 C67.0516364,6.86836364 67.2621818,7.13672727 67.4290909,7.42909091 C67.68,7.86109091 67.4138182,8.48945455 66.8454545,8.56690909 L61.1334545,9.33272727 C61.1097941,9.33635133 61.0857584,9.32914062 61.068,9.31309091 C61.0517729,9.29758482 61.0437051,9.27539837 61.0461818,9.25309091 C61.1443636,8.40872727 61.4083636,7.78690909 61.8894545,7.18472727 L61.8894545,7.18472727 Z M81.8989091,8.88872727 L81.8989091,15.7930909 C81.897728,15.8344109 81.8638824,15.8673048 81.8225455,15.8673048 L79.6690909,15.8673048 C79.6488357,15.8678597 79.6291777,15.860372 79.6144458,15.8464585 C79.5997138,15.832545 79.5911159,15.8133466 79.5905455,15.7930909 L79.5905455,10.0538182 C79.5905455,10.0538182 79.6178182,9.08509091 79.536,8.18181818 C79.4770909,7.54690909 79.2567273,6.93163636 78.7505455,6.53127273 C78.0305455,5.95963636 77.0116364,6.08618182 77.0116364,6.08618182 C75.7472727,6.21709091 74.6574545,6.97527273 73.9767273,7.74 L73.9374545,7.78472727 L73.9767273,7.76836364 L73.9767273,15.7909091 C73.9755385,15.8326564 73.9410325,15.8657045 73.8992727,15.8650909 L71.7392727,15.8650909 C71.7190175,15.8656779 71.6993595,15.8581902 71.6846276,15.8442767 C71.6698956,15.8303632 71.6612977,15.8111648 71.6607273,15.7909091 L71.6607273,4.52509091 C71.661916,4.4833436 71.6964221,4.45029554 71.7381818,4.45090909 L73.5109091,4.45090909 C73.5545455,4.45090909 73.5894545,4.48363636 73.5894545,4.52509091 L73.5894545,5.62909091 C73.5894545,5.65854545 73.6090909,5.68363636 73.6385455,5.69454545 C73.6669091,5.70545455 73.6985455,5.7 73.7203636,5.67927273 C74.6356364,4.72909091 76.0178182,4.15745455 77.4665455,4.15745455 C78.6665455,4.15963636 81.8978182,4.20763636 81.8978182,8.88872727 L81.8989091,8.88872727 Z" id="形状"></path>
                        </g>
                    </g>
                </g>
            </g>
        </g>
    </g>
</svg>