<?xml version="1.0" encoding="UTF-8"?>
<svg width="180px" height="60px" viewBox="0 0 180 60" version="1.1" xmlns="http://www.w3.org/2000/svg" xmlns:xlink="http://www.w3.org/1999/xlink">
    <!-- Generator: Sketch 61.2 (89653) - https://sketch.com -->
    <title>img_logo_dl</title>
    <desc>Created with Sketch.</desc>
    <g id="控件" stroke="none" stroke-width="1" fill="none" fill-rule="evenodd">
        <g id="img_logo_dl" transform="translate(0.000000, 11.000000)" fill-rule="nonzero">
            <g>
                <path d="M70,5 L70,31.5198054 L65.4466162,31.5198054 L65.4466162,22.064005 C65.4517986,20.6242401 64.8827724,19.2414486 63.864827,18.2200968 C62.8468816,17.1987451 61.4634834,16.6225789 60.0192324,16.6184598 C57.8202518,16.626042 55.8402313,17.9473635 54.9951299,19.9711798 C54.1500286,21.9949962 54.6046402,24.3266656 56.148661,25.8875557 C56.6419808,26.408291 57.2440427,26.8146165 57.9122681,27.0777963 C58.5833756,27.3398823 59.2984854,27.471899 60.0192324,27.4667638 C60.7083301,27.4717054 61.3914846,27.3394658 62.028652,27.0777963 L63.6595984,31.1269482 C62.4056508,31.7274746 61.0277184,32.0259216 59.6368574,31.9982354 C58.3126621,32.0108907 57.0005928,31.7458458 55.785795,31.2203004 C54.633129,30.7198803 53.5939216,29.9921792 52.7306968,29.080979 C51.8626453,28.1599663 51.1804411,27.0810715 50.7212773,25.9031144 C49.7595742,23.4066571 49.7595742,20.6435594 50.7212773,18.1471021 C51.1804411,16.969145 51.8626453,15.8902502 52.7306968,14.9692375 C53.5941335,14.0582816 54.6332876,13.3306177 55.785795,12.8299161 C57.0005928,12.3043707 58.3126621,12.0393258 59.6368574,12.0519811 C60.7503498,12.0345241 61.8571049,12.2272091 62.8987502,12.6198737 C63.8133038,12.9718846 64.6705756,13.4568633 65.4427144,14.0590535 L65.4427144,5 L70,5 Z" id="_复合路径_" fill="#FA9B00"></path>
                <polygon id="_复合路径_2" fill="#232A49" points="78.5854617 9.62959154 78.5854617 16.1871878 88.5579568 16.1871878 89.7053045 20.8088451 78.5854617 20.8088451 78.5854617 32 74 32 74 5 92 5 92 9.62959154"></polygon>
                <path d="M101.998051,12.0001667 C103.336614,11.9924825 104.662716,12.2580688 105.895294,12.7808647 C108.298478,13.7946012 110.210485,15.7092464 111.222825,18.1157453 C112.259058,20.6059113 112.259058,23.4074023 111.222825,25.8975683 C110.208812,28.3011229 108.297019,30.212752 105.895294,31.2246437 C103.399687,32.2584521 100.596416,32.2584521 98.1008087,31.2246437 C95.6990954,30.2100692 93.7885941,28.2955316 92.7771752,25.8897631 C91.7409416,23.3995971 91.7409416,20.5981061 92.7771752,18.1079401 C93.7902668,15.7051157 95.7005534,13.7935941 98.1008087,12.7808647 C99.3333545,12.2579637 100.659478,11.992373 101.998051,12.0001667 Z M101.998051,16.554654 C99.8016311,16.562305 97.823916,17.8880237 96.9797986,19.918575 C96.1356812,21.9491263 96.5897635,24.288555 98.1319866,25.8546395 C98.624732,26.3771077 99.2260929,26.7847854 99.8935403,27.048841 C100.563866,27.3117992 101.278144,27.4442553 101.998051,27.439103 C102.711722,27.4452518 103.419808,27.3127167 104.083076,27.048841 C104.751418,26.7757124 105.35736,26.3694236 105.864116,25.8546395 C107.97959,23.7236047 107.97959,20.2819037 105.864116,18.1508689 C104.839728,17.1235728 103.447799,16.5488909 101.998051,16.554654 L101.998051,16.554654 Z" id="_复合路径_3" fill="#232A49"></path>
                <path d="M122.950935,12.584149 C123.918712,12.1814973 124.955753,11.983197 126,12.0011144 L126,16.6613979 C124.548283,16.6345718 123.150301,17.2242115 122.137072,18.2907 C121.113451,19.3410167 120.541461,20.7672034 120.548287,22.2521406 L120.548287,32 L116,32 L116,12.5482085 L120.544393,12.5482085 L120.544393,14.0617025 C121.272818,13.4526372 122.08341,12.9549551 122.950935,12.584149 L122.950935,12.584149 Z" id="_复合路径_4" fill="#232A49"></path>
                <path d="M145,29.0785386 C144.091003,29.9927742 143.014827,30.7215519 141.830744,31.2247328 C139.34673,32.2584224 136.556481,32.2584224 134.072468,31.2247328 C131.681911,30.2102748 129.780285,28.295957 128.773565,25.8904647 C127.742145,23.4005846 127.742145,20.5994154 128.773565,18.1095353 C129.780285,15.704043 131.681911,13.7897252 134.072468,12.7752672 C136.556481,11.7415776 139.34673,11.7415776 141.830744,12.7752672 C143.014687,13.2787081 144.090816,14.007454 145,14.9214614 L141.795832,18.1524592 C140.787153,17.1088972 139.39445,16.5312786 137.947727,16.5564711 C136.503286,16.5491861 135.116074,17.1239481 134.095742,18.1524592 C131.990096,20.2832493 131.990096,23.7245551 134.095742,25.8553452 C134.600075,26.3701543 135.20322,26.7764087 135.868509,27.0494096 C136.528641,27.313446 137.233475,27.4459729 137.943848,27.4396267 C139.391759,27.4753557 140.788013,26.8976801 141.791953,25.8475408 L145,29.0785386 Z" id="_复合路径_5" fill="#232A49"></path>
                <path d="M162.960321,24.2855969 L153.037186,24.2855969 C153.293046,24.8747729 153.666809,25.4052603 154.135429,25.8443486 C154.641757,26.3584595 155.247287,26.764163 155.915207,27.0367936 C156.57795,27.300472 157.285571,27.4328192 157.998753,27.4264815 C158.968952,27.4433859 159.925245,27.1940575 160.763834,26.7055589 L165.499522,28.5994422 C164.595181,29.6572345 163.470693,30.5044446 162.204792,31.0817542 C159.739061,32.2166855 156.918886,32.3031 154.388373,31.3212614 C151.857861,30.3394229 149.833134,28.3731871 148.776624,25.8716267 C147.741125,23.3851234 147.741125,20.587753 148.776624,18.1012497 C149.787326,15.6990197 151.696473,13.787298 154.096484,12.7742158 C156.590322,11.7419281 159.391607,11.7419281 161.885445,12.7742158 C164.292792,13.7857875 166.208176,15.7009529 167.220883,18.1090434 C167.742588,19.3415066 168.007621,20.6674847 167.999779,22.0059226 C168.00505,22.7725084 167.916108,23.5368347 167.734954,24.2817 L162.960321,24.2855969 Z M157.998753,16.5541886 C156.549948,16.5479561 155.158845,17.121859 154.135429,18.1480122 C153.672093,18.6036696 153.299415,19.143196 153.037186,19.7379389 L162.960321,19.7379389 C162.697598,19.1434728 162.32498,18.6040344 161.862078,18.1480122 C160.84941,17.1058655 159.451199,16.5290302 157.998753,16.5541886 L157.998753,16.5541886 Z" id="_复合路径_6" fill="#232A49"></path>
                <g id="_编组_" transform="translate(7.000000, 0.000000)" fill="#232A49" stroke="#232A49">
                    <g id="_编组_2">
                        <path d="M9.42424242,39.9014925 L0.151515152,39.9014925 L0.151515152,13.6089552 L3.65454545,13.6089552 L3.65454545,36.4507463 L9.41212121,36.4507463 C14.3393939,36.4507463 18.4151515,34.8925373 21.5333333,31.8208955 C24.6515152,28.7492537 26.2060606,24.6208955 26.2060606,19.5223881 C26.2060606,14.6477612 24.6363636,10.7134328 21.5454545,7.82686567 C18.4545455,4.94029851 14.4787879,3.46268657 9.75757576,3.46268657 L0.139393939,3.46268657 L0.139393939,0 L9.75454545,0 C15.3909091,0 20.169697,1.79104478 23.9575758,5.32238806 C27.7454545,8.85373134 29.7151515,13.6626866 29.7151515,19.5223881 C29.7151515,25.5701493 27.8,30.5283582 24.0212121,34.2597015 C20.2424242,37.9910448 15.3151515,39.9014925 9.42424242,39.9014925 Z" id="路径"></path>
                    </g>
                </g>
                <g id="_编组_3" transform="translate(0.000000, 6.000000)" fill="#FA9B00" stroke="#FA9B00">
                    <path d="M13.0345632,27.9544803 C17.4255307,27.7097827 21.1164737,26.4122052 24.0299925,24.0889628 C27.2815669,21.4961546 29,17.9255872 29,13.5896903 C29,9.41093328 27.3204184,6.0236957 24.0060839,3.52982748 C20.7574981,1.08251923 16.6452129,0 11.7887715,0 L0,0 L0,28 L3.40996905,28 L3.40996905,3.26501767 L12.1324581,3.26501767 C13.952966,3.2461318 15.7661474,3.49232179 17.5119009,3.99542715 C19.1078023,4.4755768 20.5632405,5.0459364 21.8333867,6.00332571 C23.0249473,6.87711128 23.990069,8.01018654 24.651617,9.31199335 C25.2959834,10.6628556 25.617832,12.138257 25.5930195,13.6275203 C25.6182922,15.1915195 25.2950774,16.7422664 24.6456399,18.172937 C23.9886799,19.5322213 23.0204968,20.7268051 21.8154552,21.6649345 C20.5174704,22.691363 19.0305453,23.4676201 17.4341979,23.9521929 C15.9762167,24.3832612 14.4703891,24.636481 12.9512073,24.7070673 C12.926033,24.708237 12.9512073,27.9591256 13.0345632,27.9544803 Z" id="路径"></path>
                </g>
            </g>
        </g>
    </g>
</svg>