<?xml version="1.0" encoding="UTF-8"?>
<svg width="1200px" height="232px" viewBox="0 0 1200 232" version="1.1" xmlns="http://www.w3.org/2000/svg" xmlns:xlink="http://www.w3.org/1999/xlink">
    <title>编组 4</title>
    <defs>
        <linearGradient x1="25%" y1="6.68571429%" x2="75%" y2="93.3142857%" id="linearGradient-1">
            <stop stop-color="#00EBA9" offset="0%"></stop>
            <stop stop-color="#02C18C" offset="100%"></stop>
        </linearGradient>
        <linearGradient x1="25%" y1="6.68571429%" x2="75%" y2="93.3142857%" id="linearGradient-2">
            <stop stop-color="#343068" offset="0%"></stop>
            <stop stop-color="#23204F" offset="100%"></stop>
        </linearGradient>
    </defs>
    <g id="页面-1" stroke="none" stroke-width="1" fill="none" fill-rule="evenodd">
        <g id="GLODx---EN" transform="translate(-360.000000, -746.000000)">
            <g id="SWAP" transform="translate(0.000000, 696.000000)">
                <g id="编组-4" transform="translate(360.000000, 50.000000)">
                    <g id="发送">
                        <text id="SEND" font-family="PingFang-SC-Heavy, PingFang SC" font-size="24" font-weight="600" fill="#FFFFFF">
                            <tspan x="0" y="25">SEND</tspan>
                        </text>
                        <text id="Balance：0.00" font-family="PingFang-SC-Bold, PingFang SC" font-size="16" font-weight="bold" fill="#FFFFFF">
                            <tspan x="410.48" y="29">Balance：0.00</tspan>
                        </text>
                        <g id="输入数量" transform="translate(0.000000, 46.000000)">
                            <rect id="矩形" fill="#FFFFFF" x="0" y="0" width="520" height="62" rx="6"></rect>
                            <g id="USDT.c916192d" transform="translate(20.000000, 16.000000)" fill-rule="nonzero">
                                <circle id="椭圆形" fill="url(#linearGradient-1)" cx="15" cy="15" r="15"></circle>
                                <path d="M22.35,14.3528571 C21.0430509,13.8562879 19.6693882,13.5572888 18.2742857,13.4657143 C16.9542857,13.3371429 16.9885714,13.35 16.9885714,12.0042857 C16.9885714,11.5757143 17.13,11.4985714 17.5157143,11.5028571 C18.8014286,11.5242857 20.0657143,11.5028571 21.3385714,11.5028571 C21.6771429,11.5028571 21.8014286,11.4085714 21.7928571,11.0742857 C21.7714286,10.3285714 21.7628571,9.57857143 21.7928571,8.82857143 C21.7928571,8.4 21.6642857,8.28428571 21.2442857,8.28845771 C19.2,8.28845771 17.16,8.28845771 15.1157143,8.28845771 C13.0714286,8.28845771 11.0314286,8.28845771 8.98714286,8.28845771 C8.55857143,8.28845771 8.41285714,8.38285714 8.43428571,8.82428571 C8.46857143,9.54857143 8.46428571,10.2814286 8.43428571,11.0057143 C8.43428571,11.3914286 8.56714286,11.4857143 8.92714286,11.4814286 C9.91714286,11.4814286 10.9071429,11.4814286 11.9014286,11.4814286 C13.2257143,11.4814286 13.2128571,11.4814286 13.2214286,12.81 C13.2214286,13.2085714 13.1442857,13.3585714 12.7071429,13.3928571 C11.0067039,13.4452256 9.32493242,13.7633595 7.72285714,14.3357143 C7.15714286,14.5628571 6.41142857,14.7642857 6.43714286,15.5228571 C6.46285714,16.2814286 7.17,16.4271429 7.72285714,16.6457143 C9.30562065,17.2116633 10.9670779,17.5268919 12.6471429,17.58 C13.0757143,17.61 13.2257143,17.7171429 13.2214286,18.1757143 C13.1957143,20.0142857 13.2214286,21.8571429 13.1957143,23.6957143 C13.1957143,24.1928571 13.3457143,24.3085714 13.8085714,24.2871429 C14.6657143,24.2528571 15.5485714,24.2571429 16.4185714,24.2871429 C16.8471429,24.2871429 16.9714286,24.1842857 16.9628571,23.7514286 C16.9371429,21.8914286 16.9628571,20.0314286 16.9628571,18.18 C16.9628571,17.7257143 17.0914286,17.6142857 17.5328571,17.58 C19.1937979,17.5188023 20.8343726,17.1932914 22.3928571,16.6157143 C22.9242857,16.3971429 23.6014286,16.1871429 23.5929377,15.4885714 C23.5842857,14.79 22.8814286,14.5757143 22.35,14.3528571 Z M22.3971429,15.78 C21.4796662,16.0934538 20.5265268,16.2907047 19.56,16.3671429 C18.0544993,16.5341495 16.5403952,16.611429 15.0257143,16.5985714 C12.7825269,16.6495775 10.5405206,16.4541205 8.34,16.0157143 C8.00788208,15.9303188 7.68267478,15.8200062 7.36714286,15.6857143 C7.09285714,15.5785714 7.11,15.42 7.33714286,15.2571429 C7.79047219,14.9533746 8.28374327,14.7139506 8.80285714,14.5457143 C10.091586,14.1293907 11.4226284,13.8577201 12.7714286,13.7357143 C13.1442857,13.6928571 13.2,13.8428571 13.2,14.1642857 C13.2,14.7085714 13.2428571,15.2528571 13.2471429,15.7971429 C13.2471429,16.05 13.3242857,16.1528571 13.59,16.1571429 C14.5785714,16.1571429 15.5671429,16.18 16.5557143,16.2257143 C16.9114286,16.2257143 16.9842857,16.0885714 16.9842857,15.7585714 C16.9842857,15.2142857 16.9842857,14.67 16.9842857,14.1214286 C16.9842857,13.9114286 16.9842857,13.6928571 17.2971429,13.7485714 C19.0114286,13.95 20.7257143,14.2414286 22.3071429,15.06 L22.41,15.12 C22.56,15.2185714 22.7957143,15.2914286 22.7871429,15.4714286 C22.7785714,15.6514286 22.5685714,15.7157143 22.4014286,15.78 L22.3971429,15.78 Z" id="形状" fill="#FDFDFD"></path>
                            </g>
                            <text id="USDT" font-family="Helvetica-Bold, Helvetica" font-size="16" font-weight="bold" fill="#232A49">
                                <tspan x="69" y="37">USDT</tspan>
                            </text>
                            <polyline id="路径" stroke="#232A49" stroke-width="1.5" stroke-linecap="round" transform="translate(122.500000, 29.500000) rotate(-315.000000) translate(-122.500000, -29.500000) " points="125 27 125 32 120 32"></polyline>
                            <text id="AMOUT" font-family="Helvetica" font-size="14" font-weight="normal" fill="#999DAB">
                                <tspan x="143.448242" y="37">AMOUT</tspan>
                            </text>
                            <text id="MAX" font-family="Helvetica" font-size="14" font-weight="normal" fill="#999DAB">
                                <tspan x="469.662109" y="37">MAX</tspan>
                            </text>
                        </g>
                        <text id="1-USDT-=-0.99890028" opacity="0.6" font-family="SourceHanSansCN-Normal, Source Han Sans CN" font-size="14" font-weight="normal" line-spacing="24" fill="#FFFFFF">
                            <tspan x="0" y="124">1 USDT = 0.99890028  USDx </tspan>
                            <tspan x="0" y="148">Fee: 0.00%</tspan>
                        </text>
                    </g>
                    <g id="发送备份" transform="translate(680.000000, 0.000000)">
                        <text id="RECEIVE" font-family="PingFang-SC-Heavy, PingFang SC" font-size="24" font-weight="600" fill="#FFFFFF">
                            <tspan x="0" y="25">RECEIVE</tspan>
                        </text>
                        <text id="Balance：0.00" font-family="PingFang-SC-Bold, PingFang SC" font-size="16" font-weight="bold" fill="#FFFFFF">
                            <tspan x="406.48" y="29">Balance：0.00</tspan>
                        </text>
                        <g id="输入数量" transform="translate(0.000000, 46.000000)">
                            <rect id="矩形" fill="#FFFFFF" x="0" y="0" width="520" height="62" rx="6"></rect>
                            <g id="USDx.889119f7" transform="translate(20.000000, 16.000000)">
                                <circle id="椭圆形" fill="url(#linearGradient-2)" fill-rule="nonzero" cx="15" cy="15" r="15"></circle>
                                <path d="M16.2171429,6.70714286 L15.6514286,6.70714286 L15.6514286,10.4657143 C16.7271429,10.4914286 17.7942857,10.4185714 18.5014286,10.5 L18.4542857,12.7285714 C18.4542857,12.7285714 16.2471429,12.8485714 15.3342857,12.8614286 C14.6357143,12.8614286 14.9057143,13.2557143 15.1971429,13.3157143 C16.0586048,13.4924377 16.9053432,13.7345677 17.73,14.04 C18.2871429,14.31 18.6385714,14.5242857 18.8142857,15.8485714 C18.99,17.1728571 18.5185714,19.1014286 15.7842857,19.1528571 L15.6471429,19.1528571 L15.6471429,23.13 L16.2128571,23.13 C20.7479039,23.13 24.4242857,19.4536182 24.4242857,14.9185714 C24.4242857,10.3835247 20.7479039,6.70714286 16.2128571,6.70714286 L16.2171429,6.70714286 Z" id="路径" fill="#FFFFFF"></path>
                                <path d="M11.9785714,19.0157143 L12.0685714,16.7528571 C13.2111924,16.8074496 14.3560393,16.7945701 15.4971429,16.7142857 C16.0842857,16.6328571 15.7671429,16.3542857 15.7671429,16.3542857 C15.7671429,16.3542857 13.7357143,15.9857143 13.0542857,15.63 C12.3728571,15.2742857 11.5842857,14.5585714 12.0128571,12.2228571 C12.2357143,11.0185714 13.47,10.5514286 14.8628571,10.4828571 L14.8628571,6.71571429 L9.70285714,6.71571429 C8.84129293,6.71571429 8.14285714,7.41415008 8.14285714,8.27571429 L8.14285714,21.5614286 C8.14285714,22.4229928 8.84129293,23.1214286 9.70285714,23.1214286 L14.8842857,23.1214286 L14.8842857,19.1357143 C12.8657143,19.08 11.9785714,19.0157143 11.9785714,19.0157143 Z" id="路径" fill="#FFFFFF"></path>
                            </g>
                            <text id="USDT" font-family="Helvetica-Bold, Helvetica" font-size="16" font-weight="bold" fill="#232A49">
                                <tspan x="69" y="37">USDT</tspan>
                            </text>
                            <polyline id="路径" stroke="#232A49" stroke-width="1.5" stroke-linecap="round" transform="translate(122.500000, 29.500000) rotate(-315.000000) translate(-122.500000, -29.500000) " points="125 27 125 32 120 32"></polyline>
                            <text id="AMOUT" font-family="Helvetica" font-size="14" font-weight="normal" fill="#999DAB">
                                <tspan x="143.448242" y="37">AMOUT</tspan>
                            </text>
                        </g>
                    </g>
                    <g id="img_swap_dl" transform="translate(583.000000, 63.000000)">
                        <g>
                            <path d="M30.5437143,27.2630041 L28.3337241,25.0545905 L28.3337241,25.0531057 L12.0796532,8.7994301 L23.014968,8.7994301 L19.7339623,12.0803559 L29.8755812,22.2219185 C31.913484,17.1975083 30.9170144,11.2347879 26.8411707,7.15896718 C21.966301,2.28413989 14.3825781,1.79796682 8.94659701,5.66645012 L6.73672105,3.45670405 C13.4029746,-1.60691981 22.9428969,-1.11233294 29.028584,4.97313002 C35.1127862,11.0571463 35.6059765,20.5968365 30.5437143,27.2630041 Z" id="形状备份" fill="#FA9B00" fill-rule="nonzero"></path>
                            <path d="M23.014968,24.1076761 L12.0796532,24.1076761 L15.3592501,20.8280447 L4.83283319,10.300361 C1.91538118,15.5881879 2.67500224,22.3587094 7.15822089,26.8415145 C12.4094365,32.0928309 20.8023508,32.2549774 26.2664294,27.3601626 L28.4536522,29.5476749 C21.7774237,35.6455872 11.4299472,35.4864103 4.97236864,29.0288745 C-1.4867709,22.5700444 -1.64610401,12.2227433 4.45370796,5.54820004 L4.97233056,6.0668481 L4.97233056,6.06540138 L23.014968,24.1076761 Z" id="路径" fill="#EEEFF1" fill-rule="nonzero"></path>
                        </g>
                    </g>
                </g>
            </g>
        </g>
    </g>
</svg>