<svg id="图层_1" data-name="图层 1" xmlns="http://www.w3.org/2000/svg" xmlns:xlink="http://www.w3.org/1999/xlink" viewBox="0 0 71.98 67.9"><defs><style>.cls-1{fill:#fff;}.cls-2{mask:url(#mask);}.cls-3{fill:#efe812;}.cls-4{fill:#ede70a;}.cls-5{fill:#dec21c;}.cls-6{fill:#e5cb22;}.cls-7{fill:#cca727;}</style><mask id="mask" x="0" y="4.82" width="23.84" height="54.6" maskUnits="userSpaceOnUse"><g transform="translate(0 -0.17)"><g id="mask-2"><polygon id="path-1" class="cls-1" points="0 4.99 23.84 4.99 23.84 59.59 0 59.59 0 4.99"/></g></g></mask></defs><title>logo-paxg</title><g id="Group-3"><g id="Fill-1-Clipped"><g class="cls-2"><path id="Fill-1" class="cls-3" d="M20,9c1.38-1.56,2.63-2.89,3.83-4C3.58,4.36,9.48,19,2.87,33.89c-7.6,17.14.89,23.67,13.56,25.7a27.47,27.47,0,0,1-4.28-7C3.94,42.26,7.25,23.44,20,9" transform="translate(0 -0.17)"/></g></g></g><path id="Fill-4" class="cls-4" d="M68.75,27.27A57.93,57.93,0,0,1,58.52,44.4,49,49,0,0,1,46.09,55.17a33.54,33.54,0,0,1-18.34,5.21,72.56,72.56,0,0,1-11.32-.79A23.18,23.18,0,0,0,24,65.52c18.32,8.86,19.47-7.59,38.85-15.94,10.88-4.69,10.92-13.85,5.89-22.31" transform="translate(0 -0.17)"/><path id="Fill-6" class="cls-4" d="M46.09,10.15a24.17,24.17,0,0,1,7.56,2.68,42.29,42.29,0,0,1,15.1,14.44C72,18,70.51,10.67,63.3,9.35,55.36,7.9,49.16,7.43,43.2,3.27,35.86-1.86,29.42-.17,23.84,5L25,5.07c7.75.46,15.14,2,21,5.08" transform="translate(0 -0.17)"/><path id="Fill-8" class="cls-5" d="M20,9C7.25,23.44,3.94,42.26,12.15,52.59a31.37,31.37,0,0,1,1.76-28.05C20.83,13.07,34.7,8.07,46.09,10.15,40.19,7,32.79,5.53,25,5.07L23.84,5C22.64,6.13,21.38,7.46,20,9" transform="translate(0 -0.17)"/><path id="Fill-10" class="cls-6" d="M53.65,12.83a24.12,24.12,0,0,0-7.56-2.68c7.77,4.1,12.94,11,12.88,22A27.52,27.52,0,0,1,46.09,55.17,49,49,0,0,0,58.52,44.4,57.87,57.87,0,0,0,68.75,27.27a42.28,42.28,0,0,0-15.1-14.44" transform="translate(0 -0.17)"/><path id="Fill-12" class="cls-7" d="M46.09,10.15C34.7,8.07,20.83,13.07,13.92,24.54a31.37,31.37,0,0,0-1.76,28.05,27.46,27.46,0,0,0,4.28,7,72.52,72.52,0,0,0,11.32.78,33.53,33.53,0,0,0,18.34-5.21A27.51,27.51,0,0,0,59,32.11c.06-11-5.11-17.86-12.88-22M44.81,50a18.94,18.94,0,0,1-26.12-5.62c-5.66-8.73-2.86-20,5.63-26,9.5-6.75,21.68-4.09,26.12,5.61,4.33,9.46,3.13,20.39-5.64,26" transform="translate(0 -0.17)"/></svg>